<svg xmlns="http://www.w3.org/2000/svg" width="980" height="420" viewBox="0 0 980 420">
<rect width="100%" height="100%" fill="#f7f7f7"/>
<rect x="20" y="20" width="940" height="380" fill="#ffffff" stroke="#d6d6d6"/>
<text x="40" y="48" font-size="22" font-weight="700" fill="#222222">Transformer predictions: Wind Speed Forecasting (Preprocessed)</text>
<text x="40" y="68" font-size="12" fill="#666666">Held-out steps 4249-5947, unstandardized to the target scale.</text>
<line x1="72" x2="950" y1="360.0" y2="360.0" stroke="#e8e8e8"/>
<text x="62" y="364.0" text-anchor="end" font-size="11" fill="#666666">-4.85</text>
<line x1="72" x2="950" y1="289.0" y2="289.0" stroke="#e8e8e8"/>
<text x="62" y="293.0" text-anchor="end" font-size="11" fill="#666666">-0.638</text>
<line x1="72" x2="950" y1="218.0" y2="218.0" stroke="#e8e8e8"/>
<text x="62" y="222.0" text-anchor="end" font-size="11" fill="#666666">3.57</text>
<line x1="72" x2="950" y1="147.0" y2="147.0" stroke="#e8e8e8"/>
<text x="62" y="151.0" text-anchor="end" font-size="11" fill="#666666">7.78</text>
<line x1="72" x2="950" y1="76.0" y2="76.0" stroke="#e8e8e8"/>
<text x="62" y="80.0" text-anchor="end" font-size="11" fill="#666666">12.0</text>
<polyline points="72.00,199.69 72.52,216.28 73.03,221.09 73.55,220.98 74.07,222.89 74.59,232.48 75.10,228.38 75.62,229.78 76.14,218.14 76.65,215.55 77.17,224.13 77.69,230.57 78.20,230.57 78.72,224.61 79.24,225.54 79.76,218.84 80.27,204.59 80.79,196.80 81.31,193.39 81.82,199.47 82.34,199.86 82.86,192.77 83.38,183.66 83.89,189.34 84.41,186.36 84.93,190.21 85.44,188.47 85.96,189.62 86.48,193.79 87.00,198.40 87.51,203.10 88.03,208.10 88.55,201.13 89.06,189.85 89.58,208.19 90.10,206.78 90.61,218.51 91.13,215.67 91.65,213.19 92.17,213.44 92.68,201.97 93.20,187.04 93.72,193.20 94.23,200.31 94.75,196.54 95.27,193.25 95.79,188.19 96.30,190.41 96.82,199.89 97.34,197.75 97.85,204.14 98.37,197.78 98.89,199.10 99.41,205.94 99.92,208.97 100.44,207.99 100.96,206.81 101.47,210.21 101.99,208.94 102.51,211.53 103.02,217.92 103.54,220.90 104.06,222.70 104.58,218.93 105.09,206.58 105.61,218.34 106.13,209.03 106.64,217.21 107.16,220.81 107.68,174.10 108.20,176.66 108.71,189.12 109.23,228.27 109.75,239.51 110.26,248.99 110.78,253.97 111.30,246.07 111.82,230.99 112.33,243.62 112.85,220.78 113.37,224.50 113.88,217.78 114.40,221.26 114.92,229.64 115.43,233.13 115.95,230.23 116.47,234.54 116.99,239.60 117.50,242.21 118.02,242.38 118.54,223.62 119.05,195.05 119.57,184.17 120.09,206.44 120.61,207.99 121.12,208.04 121.64,211.73 122.16,237.85 122.67,243.73 123.19,245.39 123.71,238.02 124.22,235.97 124.74,233.89 125.26,235.75 125.78,220.92 126.29,217.75 126.81,223.51 127.33,221.77 127.84,216.00 128.36,215.86 128.88,221.12 129.40,229.70 129.91,230.63 130.43,209.65 130.95,188.84 131.46,183.30 131.98,183.61 132.50,191.40 133.02,190.07 133.53,194.21 134.05,206.55 134.57,225.76 135.08,229.70 135.60,216.99 136.12,209.51 136.63,215.61 137.15,211.34 137.67,210.32 138.19,213.50 138.70,211.34 139.22,199.33 139.74,199.55 140.25,198.90 140.77,195.90 141.29,195.50 141.81,199.66 142.32,199.30 142.84,204.14 143.36,217.16 143.87,227.70 144.39,233.89 144.91,234.82 145.43,223.96 145.94,217.27 146.46,211.62 146.98,214.09 147.49,216.76 148.01,216.62 148.53,214.85 149.04,204.87 149.56,211.19 150.08,211.70 150.60,209.54 151.11,203.80 151.63,202.98 152.15,213.50 152.66,231.02 153.18,229.92 153.70,240.36 154.22,256.25 154.73,251.41 155.25,241.09 155.77,231.53 156.28,230.01 156.80,231.89 157.32,232.91 157.84,232.01 158.35,234.90 158.87,233.86 159.39,240.84 159.90,242.33 160.42,255.09 160.94,246.83 161.45,211.42 161.97,220.11 162.49,214.46 163.01,212.97 163.52,217.80 164.04,221.49 164.56,230.40 165.07,230.49 165.59,230.18 166.11,234.00 166.63,233.27 167.14,233.44 167.66,218.90 168.18,216.00 168.69,219.88 169.21,222.44 169.73,223.46 170.24,230.26 170.76,239.09 171.28,243.79 171.80,246.12 172.31,241.23 172.83,239.49 173.35,225.14 173.86,227.28 174.38,221.91 174.90,215.24 175.42,226.30 175.93,247.28 176.45,238.73 176.97,222.42 177.48,209.17 178.00,197.86 178.52,189.03 179.04,202.20 179.55,202.50 180.07,192.44 180.59,180.71 181.10,173.88 181.62,187.49 182.14,165.41 182.65,191.26 183.17,172.38 183.69,206.78 184.21,187.18 184.72,198.00 185.24,192.89 185.76,207.90 186.27,191.62 186.79,223.29 187.31,238.00 187.83,221.52 188.34,222.42 188.86,225.82 189.38,181.30 189.89,185.32 190.41,189.91 190.93,179.50 191.45,177.39 191.96,199.41 192.48,202.95 193.00,214.85 193.51,209.06 194.03,176.97 194.55,172.98 195.06,161.45 195.58,148.09 196.10,153.26 196.62,212.97 197.13,242.21 197.65,220.84 198.17,209.54 198.68,205.01 199.20,200.17 199.72,196.99 200.24,183.61 200.75,186.19 201.27,178.32 201.79,185.32 202.30,182.54 202.82,174.02 203.34,142.97 203.86,151.26 204.37,171.01 204.89,175.98 205.41,166.37 205.92,157.87 206.44,167.46 206.96,165.55 207.47,179.92 207.99,181.67 208.51,179.47 209.03,180.77 209.54,184.31 210.06,202.48 210.58,189.03 211.09,192.24 211.61,180.68 212.13,195.22 212.65,189.23 213.16,171.93 213.68,182.99 214.20,186.73 214.71,175.23 215.23,184.39 215.75,195.16 216.27,212.97 216.78,255.01 217.30,252.82 217.82,237.15 218.33,219.86 218.85,212.99 219.37,195.67 219.88,205.46 220.40,212.43 220.92,224.07 221.44,240.36 221.95,242.69 222.47,239.82 222.99,236.17 223.50,232.12 224.02,230.06 224.54,229.67 225.06,226.02 225.57,227.76 226.09,223.62 226.61,220.64 227.12,216.65 227.64,219.58 228.16,214.37 228.67,217.89 229.19,220.31 229.71,214.03 230.23,194.10 230.74,190.13 231.26,201.77 231.78,204.70 232.29,207.54 232.81,210.86 233.33,216.54 233.85,209.96 234.36,216.65 234.88,226.41 235.40,230.12 235.91,217.89 236.43,201.49 236.95,191.26 237.47,185.15 237.98,191.23 238.50,201.41 239.02,204.61 239.53,202.00 240.05,214.23 240.57,219.29 241.08,216.12 241.60,224.30 242.12,222.47 242.64,227.82 243.15,223.62 243.67,222.98 244.19,224.27 244.70,216.40 245.22,215.53 245.74,225.87 246.26,226.69 246.77,232.34 247.29,224.38 247.81,202.50 248.32,195.98 248.84,200.79 249.36,195.90 249.88,192.13 250.39,196.40 250.91,205.32 251.43,190.83 251.94,186.50 252.46,222.02 252.98,237.46 253.49,201.30 254.01,242.52 254.53,249.30 255.05,257.82 255.56,241.57 256.08,231.70 256.60,233.13 257.11,216.93 257.63,230.46 258.15,253.66 258.67,253.66 259.18,237.32 259.70,224.47 260.22,219.18 260.73,217.47 261.25,212.60 261.77,213.13 262.29,214.34 262.80,213.28 263.32,211.90 263.84,208.97 264.35,205.49 264.87,205.04 265.39,192.24 265.90,194.24 266.42,203.01 266.94,222.27 267.46,235.94 267.97,244.63 268.49,205.54 269.01,201.58 269.52,212.68 270.04,206.98 270.56,223.71 271.08,221.18 271.59,225.26 272.11,214.06 272.63,215.81 273.14,212.60 273.66,214.68 274.18,207.06 274.69,210.44 275.21,215.55 275.73,195.28 276.25,179.67 276.76,193.67 277.28,198.82 277.80,201.66 278.31,199.38 278.83,205.74 279.35,198.23 279.87,196.15 280.38,211.73 280.90,231.53 281.42,237.66 281.93,227.98 282.45,236.84 282.97,221.07 283.49,202.00 284.00,201.83 284.52,203.77 285.04,202.05 285.55,201.04 286.07,193.98 286.59,187.88 287.10,185.04 287.62,187.12 288.14,189.68 288.66,209.14 289.17,193.84 289.69,212.85 290.21,205.12 290.72,205.23 291.24,215.08 291.76,253.27 292.28,251.52 292.79,237.80 293.31,229.28 293.83,237.69 294.34,247.73 294.86,253.13 295.38,255.01 295.90,262.69 296.41,236.03 296.93,233.36 297.45,223.77 297.96,214.03 298.48,221.21 299.00,223.71 299.51,199.64 300.03,205.01 300.55,220.73 301.07,212.88 301.58,206.98 302.10,215.30 302.62,212.24 303.13,198.37 303.65,201.83 304.17,215.08 304.69,217.13 305.20,222.47 305.72,223.79 306.24,220.19 306.75,214.48 307.27,227.31 307.79,225.59 308.31,234.48 308.82,246.71 309.34,255.94 309.86,246.77 310.37,233.69 310.89,235.75 311.41,232.91 311.92,234.76 312.44,229.42 312.96,231.05 313.48,229.36 313.99,225.06 314.51,227.17 315.03,248.26 315.54,232.12 316.06,250.79 316.58,245.20 317.10,248.46 317.61,239.15 318.13,229.61 318.65,228.52 319.16,241.74 319.68,244.01 320.20,245.81 320.71,244.04 321.23,242.75 321.75,253.35 322.27,263.76 322.78,246.88 323.30,243.03 323.82,197.84 324.33,234.14 324.85,261.39 325.37,243.37 325.89,240.27 326.40,239.26 326.92,224.38 327.44,221.23 327.95,216.90 328.47,221.18 328.99,214.71 329.51,235.13 330.02,206.89 330.54,207.20 331.06,220.95 331.57,237.15 332.09,250.23 332.61,260.41 333.12,253.66 333.64,235.35 334.16,227.20 334.68,212.60 335.19,202.98 335.71,217.69 336.23,221.35 336.74,211.22 337.26,212.52 337.78,224.92 338.30,230.37 338.81,237.29 339.33,233.95 339.85,241.96 340.36,230.77 340.88,237.71 341.40,247.11 341.92,245.00 342.43,237.26 342.95,230.94 343.47,224.10 343.98,225.42 344.50,246.46 345.02,259.17 345.53,261.59 346.05,259.03 346.57,259.93 347.09,257.57 347.60,247.92 348.12,226.13 348.64,241.26 349.15,231.84 349.67,241.65 350.19,238.08 350.71,236.20 351.22,234.62 351.74,231.22 352.26,214.34 352.77,212.29 353.29,214.01 353.81,212.80 354.33,195.95 354.84,193.22 355.36,200.96 355.88,195.36 356.39,206.24 356.91,210.97 357.43,202.05 357.94,218.70 358.46,214.20 358.98,207.23 359.50,198.82 360.01,209.11 360.53,217.55 361.05,218.70 361.56,210.55 362.08,211.64 362.60,224.22 363.12,218.37 363.63,220.73 364.15,226.30 364.67,224.16 365.18,220.78 365.70,215.98 366.22,224.95 366.73,251.52 367.25,226.75 367.77,213.33 368.29,219.38 368.80,233.61 369.32,244.18 369.84,250.37 370.35,248.15 370.87,227.84 371.39,227.06 371.91,212.40 372.42,221.18 372.94,219.63 373.46,222.39 373.97,222.30 374.49,233.33 375.01,227.31 375.53,228.74 376.04,254.11 376.56,246.69 377.08,236.39 377.59,239.96 378.11,244.32 378.63,238.90 379.14,254.62 379.66,230.88 380.18,224.64 380.70,216.09 381.21,211.90 381.73,225.76 382.25,223.74 382.76,242.86 383.28,245.98 383.80,241.68 384.32,231.36 384.83,235.55 385.35,231.89 385.87,226.86 386.38,227.42 386.90,230.60 387.42,236.56 387.94,228.46 388.45,223.74 388.97,221.68 389.49,232.79 390.00,227.65 390.52,245.43 391.04,269.69 391.55,247.70 392.07,243.34 392.59,233.75 393.11,225.12 393.62,222.36 394.14,233.64 394.66,222.42 395.17,235.38 395.69,231.44 396.21,245.84 396.73,246.85 397.24,226.80 397.76,230.80 398.28,227.00 398.79,219.88 399.31,204.53 399.83,208.33 400.35,201.44 400.86,209.99 401.38,203.66 401.90,211.79 402.41,221.43 402.93,222.53 403.45,216.28 403.96,218.37 404.48,223.09 405.00,218.25 405.52,224.50 406.03,219.46 406.55,223.77 407.07,228.27 407.58,217.94 408.10,214.68 408.62,222.08 409.14,219.41 409.65,215.89 410.17,207.93 410.69,202.70 411.20,203.38 411.72,208.97 412.24,206.89 412.76,210.27 413.27,212.38 413.79,212.01 414.31,211.67 414.82,211.98 415.34,212.68 415.86,217.69 416.37,208.72 416.89,205.79 417.41,206.95 417.93,209.37 418.44,207.12 418.96,221.80 419.48,220.76 419.99,211.00 420.51,214.77 421.03,214.23 421.55,208.83 422.06,207.85 422.58,203.97 423.10,208.49 423.61,208.44 424.13,212.07 424.65,212.38 425.16,210.15 425.68,203.74 426.20,205.68 426.72,205.77 427.23,210.77 427.75,207.09 428.27,191.62 428.78,189.12 429.30,195.28 429.82,202.00 430.34,210.07 430.85,214.18 431.37,210.13 431.89,223.03 432.40,217.66 432.92,220.42 433.44,227.70 433.96,205.54 434.47,218.98 434.99,219.41 435.51,216.99 436.02,207.37 436.54,204.00 437.06,208.52 437.57,206.16 438.09,204.95 438.61,208.10 439.13,203.24 439.64,209.73 440.16,214.34 440.68,212.29 441.19,213.36 441.71,218.68 442.23,214.82 442.75,206.95 443.26,208.07 443.78,213.95 444.30,214.51 444.81,206.19 445.33,209.99 445.85,208.80 446.37,210.86 446.88,213.84 447.40,220.81 447.92,219.60 448.43,220.81 448.95,207.43 449.47,205.60 449.98,219.94 450.50,230.21 451.02,228.32 451.54,221.26 452.05,225.37 452.57,205.20 453.09,185.57 453.60,178.21 454.12,183.41 454.64,184.70 455.16,181.58 455.67,180.71 456.19,192.83 456.71,195.67 457.22,203.04 457.74,201.75 458.26,192.35 458.78,200.85 459.29,209.96 459.81,215.30 460.33,211.53 460.84,205.37 461.36,204.89 461.88,200.76 462.39,196.51 462.91,208.27 463.43,214.88 463.95,205.57 464.46,187.37 464.98,184.79 465.50,177.22 466.01,174.78 466.53,169.88 467.05,159.81 467.57,174.86 468.08,184.56 468.60,199.52 469.12,212.54 469.63,205.79 470.15,211.90 470.67,202.84 471.18,203.52 471.70,198.60 472.22,191.23 472.74,195.47 473.25,213.92 473.77,205.15 474.29,206.36 474.80,216.68 475.32,220.62 475.84,233.78 476.36,208.49 476.87,187.63 477.39,167.66 477.91,183.57 478.42,183.57 478.94,183.57 479.46,183.57 479.98,183.57 480.49,183.57 481.01,220.42 481.53,223.96 482.04,222.25 482.56,212.09 483.08,209.48 483.59,209.11 484.11,208.66 484.63,205.99 485.15,210.60 485.66,216.34 486.18,228.01 486.70,230.32 487.21,227.70 487.73,239.26 488.25,253.24 488.77,221.99 489.28,238.05 489.80,232.23 490.32,223.46 490.83,204.22 491.35,207.23 491.87,211.17 492.39,205.96 492.90,206.58 493.42,206.30 493.94,214.57 494.45,206.39 494.97,209.90 495.49,199.30 496.00,190.64 496.52,201.86 497.04,200.59 497.56,186.98 498.07,224.10 498.59,239.57 499.11,248.43 499.62,236.06 500.14,214.65 500.66,208.21 501.18,209.09 501.69,184.76 502.21,158.63 502.73,146.23 503.24,119.09 503.76,126.04 504.28,139.48 504.80,158.04 505.31,122.44 505.83,103.48 506.35,115.38 506.86,119.65 507.38,140.47 507.90,164.82 508.41,175.39 508.93,195.45 509.45,194.01 509.97,194.63 510.48,174.92 511.00,207.99 511.52,204.92 512.03,239.85 512.55,220.08 513.07,254.31 513.59,229.76 514.10,218.34 514.62,209.65 515.14,236.65 515.65,218.17 516.17,218.03 516.69,204.25 517.20,217.07 517.72,218.93 518.24,214.03 518.76,222.81 519.27,233.61 519.79,241.03 520.31,241.43 520.82,250.90 521.34,254.14 521.86,234.34 522.38,254.17 522.89,258.92 523.41,233.83 523.93,243.11 524.44,236.96 524.96,238.61 525.48,234.00 526.00,233.97 526.51,211.67 527.03,207.37 527.55,200.00 528.06,201.15 528.58,215.36 529.10,206.24 529.61,208.07 530.13,206.13 530.65,217.38 531.17,234.65 531.68,234.90 532.20,236.53 532.72,226.41 533.23,235.61 533.75,217.10 534.27,199.24 534.79,200.03 535.30,211.11 535.82,220.33 536.34,216.00 536.85,184.28 537.37,195.45 537.89,211.93 538.41,210.52 538.92,203.85 539.44,202.93 539.96,190.55 540.47,187.99 540.99,193.79 541.51,177.22 542.02,176.60 542.54,196.26 543.06,200.82 543.58,183.72 544.09,179.11 544.61,188.64 545.13,167.86 545.64,165.21 546.16,181.61 546.68,189.85 547.20,192.01 547.71,184.06 548.23,178.77 548.75,189.48 549.26,184.37 549.78,181.38 550.30,192.61 550.82,218.87 551.33,200.03 551.85,190.52 552.37,187.18 552.88,183.47 553.40,173.85 553.92,162.77 554.43,179.89 554.95,182.00 555.47,183.52 555.99,188.50 556.50,197.64 557.02,183.58 557.54,194.74 558.05,183.10 558.57,205.71 559.09,212.24 559.61,211.22 560.12,216.28 560.64,202.45 561.16,199.86 561.67,211.64 562.19,212.18 562.71,220.62 563.22,220.95 563.74,211.73 564.26,209.11 564.78,216.79 565.29,212.21 565.81,205.79 566.33,223.48 566.84,216.90 567.36,216.54 567.88,227.31 568.40,241.85 568.91,257.46 569.43,254.22 569.95,241.76 570.46,231.72 570.98,228.46 571.50,220.11 572.02,213.36 572.53,214.48 573.05,212.01 573.57,210.38 574.08,210.32 574.60,209.62 575.12,210.15 575.63,211.39 576.15,214.65 576.67,212.43 577.19,225.73 577.70,198.45 578.22,188.33 578.74,193.45 579.25,194.35 579.77,203.18 580.29,205.20 580.81,224.61 581.32,214.37 581.84,207.17 582.36,207.17 582.87,210.10 583.39,202.03 583.91,202.87 584.43,196.29 584.94,192.46 585.46,198.71 585.98,191.99 586.49,194.66 587.01,214.51 587.53,230.91 588.04,220.25 588.56,199.75 589.08,189.37 589.60,187.01 590.11,201.66 590.63,223.17 591.15,233.19 591.66,235.91 592.18,237.21 592.70,249.78 593.22,263.00 593.73,271.04 594.25,256.36 594.77,264.01 595.28,245.39 595.80,220.67 596.32,210.21 596.84,204.11 597.35,215.05 597.87,213.30 598.39,208.83 598.90,207.29 599.42,213.22 599.94,224.69 600.45,210.60 600.97,220.62 601.49,222.50 602.01,242.19 602.52,262.15 603.04,254.45 603.56,250.00 604.07,261.45 604.59,265.67 605.11,256.87 605.63,248.09 606.14,229.42 606.66,212.80 607.18,207.31 607.69,203.83 608.21,206.61 608.73,216.51 609.24,198.93 609.76,216.88 610.28,225.96 610.80,228.24 611.31,238.87 611.83,227.82 612.35,216.40 612.86,218.76 613.38,207.00 613.90,223.43 614.42,247.33 614.93,262.41 615.45,250.31 615.97,258.19 616.48,246.57 617.00,243.93 617.52,255.18 618.04,265.25 618.55,237.77 619.07,227.00 619.59,224.41 620.10,217.35 620.62,212.54 621.14,208.24 621.65,204.53 622.17,215.44 622.69,213.56 623.21,220.50 623.72,226.44 624.24,198.34 624.76,204.61 625.27,201.38 625.79,212.80 626.31,219.97 626.83,229.42 627.34,212.01 627.86,231.11 628.38,243.48 628.89,248.12 629.41,233.16 629.93,225.85 630.45,238.78 630.96,218.51 631.48,202.98 632.00,202.56 632.51,205.79 633.03,206.55 633.55,209.93 634.06,206.58 634.58,211.59 635.10,209.82 635.62,225.99 636.13,206.75 636.65,196.85 637.17,212.80 637.68,230.23 638.20,246.66 638.72,256.67 639.24,263.87 639.75,243.37 640.27,239.94 640.79,246.69 641.30,244.04 641.82,244.52 642.34,254.84 642.86,254.03 643.37,261.65 643.89,261.68 644.41,263.92 644.92,255.18 645.44,245.20 645.96,237.24 646.47,218.53 646.99,206.05 647.51,198.71 648.03,198.31 648.54,237.60 649.06,237.85 649.58,253.10 650.09,252.39 650.61,251.97 651.13,257.12 651.65,259.23 652.16,261.28 652.68,252.45 653.20,244.35 653.71,241.31 654.23,250.79 654.75,261.90 655.27,260.35 655.78,262.38 656.30,224.95 656.82,218.82 657.33,213.56 657.85,198.60 658.37,215.41 658.88,239.49 659.40,222.87 659.92,214.88 660.44,219.66 660.95,230.63 661.47,231.13 661.99,232.96 662.50,235.89 663.02,225.93 663.54,226.72 664.06,238.90 664.57,258.30 665.09,255.91 665.61,248.88 666.12,240.70 666.64,239.49 667.16,257.82 667.67,275.88 668.19,253.58 668.71,262.35 669.23,226.24 669.74,209.99 670.26,219.86 670.78,213.16 671.29,203.12 671.81,201.27 672.33,212.18 672.85,226.24 673.36,219.01 673.88,202.98 674.40,194.26 674.91,188.22 675.43,214.93 675.95,230.32 676.47,228.27 676.98,248.71 677.50,239.65 678.02,233.69 678.53,234.42 679.05,236.08 679.57,236.93 680.08,233.64 680.60,226.13 681.12,225.00 681.64,213.19 682.15,198.65 682.67,166.56 683.19,157.11 683.70,180.03 684.22,185.72 684.74,233.24 685.26,233.38 685.77,240.10 686.29,235.97 686.81,223.09 687.32,209.23 687.84,217.97 688.36,223.23 688.88,243.59 689.39,248.88 689.91,247.59 690.43,244.27 690.94,241.00 691.46,242.16 691.98,247.47 692.49,266.01 693.01,273.63 693.53,261.39 694.05,241.48 694.56,236.59 695.08,238.05 695.60,243.40 696.11,239.15 696.63,236.42 697.15,235.21 697.67,238.87 698.18,234.87 698.70,236.25 699.22,251.78 699.73,251.94 700.25,248.26 700.77,240.58 701.29,232.26 701.80,230.35 702.32,233.02 702.84,234.23 703.35,241.60 703.87,244.97 704.39,250.00 704.90,257.88 705.42,266.40 705.94,253.32 706.46,243.90 706.97,226.75 707.49,213.44 708.01,213.75 708.52,207.79 709.04,218.79 709.56,220.62 710.08,219.88 710.59,222.92 711.11,223.12 711.63,223.51 712.14,219.72 712.66,212.18 713.18,220.70 713.69,245.95 714.21,246.91 714.73,237.10 715.25,232.01 715.76,225.73 716.28,207.74 716.80,218.23 717.31,231.36 717.83,250.00 718.35,249.89 718.87,230.77 719.38,221.54 719.90,217.49 720.42,216.40 720.93,217.72 721.45,214.56 721.97,216.59 722.49,213.84 723.00,212.38 723.52,209.51 724.04,206.86 724.55,209.34 725.07,206.98 725.59,218.65 726.10,234.76 726.62,238.25 727.14,228.43 727.66,236.11 728.17,248.88 728.69,216.62 729.21,204.84 729.72,230.04 730.24,235.44 730.76,242.35 731.28,235.58 731.79,226.02 732.31,223.88 732.83,219.18 733.34,212.74 733.86,215.02 734.38,214.93 734.90,209.20 735.41,207.12 735.93,205.37 736.45,205.06 736.96,203.07 737.48,206.33 738.00,215.95 738.51,221.04 739.03,217.33 739.55,213.47 740.07,210.55 740.58,208.27 741.10,209.28 741.62,213.36 742.13,227.22 742.65,224.47 743.17,223.40 743.69,221.66 744.20,225.48 744.72,229.56 745.24,218.42 745.75,216.03 746.27,211.03 746.79,209.84 747.31,208.30 747.82,207.29 748.34,206.78 748.86,207.99 749.37,212.46 749.89,214.48 750.41,226.21 750.92,251.55 751.44,246.24 751.96,239.29 752.48,232.54 752.99,226.27 753.51,213.02 754.03,211.22 754.54,215.22 755.06,234.28 755.58,250.88 756.10,237.97 756.61,232.15 757.13,225.20 757.65,228.80 758.16,213.64 758.68,216.79 759.20,214.05 759.71,209.90 760.23,213.81 760.75,207.17 761.27,207.65 761.78,209.34 762.30,208.27 762.82,216.20 763.33,231.61 763.85,226.32 764.37,232.65 764.89,235.75 765.40,234.45 765.92,229.25 766.44,224.44 766.95,236.51 767.47,222.33 767.99,228.15 768.51,211.90 769.02,197.02 769.54,201.41 770.06,200.20 770.57,207.00 771.09,196.01 771.61,195.33 772.12,188.47 772.64,195.47 773.16,200.65 773.68,202.79 774.19,211.34 774.71,210.83 775.23,215.78 775.74,218.65 776.26,216.12 776.78,220.19 777.30,227.53 777.81,222.47 778.33,207.59 778.85,202.34 779.36,219.35 779.88,227.59 780.40,229.19 780.92,235.35 781.43,215.78 781.95,209.93 782.47,211.53 782.98,204.28 783.50,204.59 784.02,206.95 784.53,219.69 785.05,215.33 785.57,211.45 786.09,204.81 786.60,209.65 787.12,201.44 787.64,210.89 788.15,221.12 788.67,231.72 789.19,242.69 789.71,227.87 790.22,209.73 790.74,207.71 791.26,213.02 791.77,232.71 792.29,233.95 792.81,213.84 793.33,209.03 793.84,213.78 794.36,212.04 794.88,209.87 795.39,198.31 795.91,198.37 796.43,209.59 796.94,202.28 797.46,209.25 797.98,208.89 798.50,201.35 799.01,211.05 799.53,217.16 800.05,215.78 800.56,226.94 801.08,217.27 801.60,216.79 802.12,222.02 802.63,215.89 803.15,216.82 803.67,217.44 804.18,214.48 804.70,230.26 805.22,229.45 805.73,222.05 806.25,223.79 806.77,232.29 807.29,219.10 807.80,218.98 808.32,217.16 808.84,213.11 809.35,216.43 809.87,216.90 810.39,222.87 810.91,203.74 811.42,205.01 811.94,217.02 812.46,231.50 812.97,213.70 813.49,205.82 814.01,194.49 814.53,197.47 815.04,200.79 815.56,204.47 816.08,181.97 816.59,184.53 817.11,203.26 817.63,212.40 818.14,221.21 818.66,219.66 819.18,225.73 819.70,225.26 820.21,224.16 820.73,224.75 821.25,222.81 821.76,216.51 822.28,211.70 822.80,207.79 823.32,210.58 823.83,215.72 824.35,224.64 824.87,230.85 825.38,205.68 825.90,195.50 826.42,183.75 826.94,188.16 827.45,197.47 827.97,199.44 828.49,205.79 829.00,219.10 829.52,229.28 830.04,239.12 830.55,234.00 831.07,233.58 831.59,231.67 832.11,229.33 832.62,211.19 833.14,200.25 833.66,197.02 834.17,219.83 834.69,252.62 835.21,209.65 835.73,212.09 836.24,220.28 836.76,210.07 837.28,211.56 837.79,232.03 838.31,243.48 838.83,230.91 839.35,227.65 839.86,232.91 840.38,219.69 840.90,230.35 841.41,249.69 841.93,240.84 842.45,227.51 842.96,209.65 843.48,206.92 844.00,199.55 844.52,203.01 845.03,209.51 845.55,203.29 846.07,201.60 846.58,191.68 847.10,201.46 847.62,198.48 848.14,204.14 848.65,230.15 849.17,229.28 849.69,245.48 850.20,254.39 850.72,246.38 851.24,225.37 851.76,229.25 852.27,229.14 852.79,228.21 853.31,239.82 853.82,256.11 854.34,269.30 854.86,272.87 855.37,248.23 855.89,241.76 856.41,230.37 856.93,223.06 857.44,225.48 857.96,219.38 858.48,217.35 858.99,217.69 859.51,218.98 860.03,225.00 860.55,211.50 861.06,210.55 861.58,202.84 862.10,205.82 862.61,216.93 863.13,237.10 863.65,244.49 864.16,248.94 864.68,246.24 865.20,234.85 865.72,233.89 866.23,246.40 866.75,241.62 867.27,228.80 867.78,231.05 868.30,228.21 868.82,234.37 869.34,234.42 869.85,220.25 870.37,220.56 870.89,220.81 871.40,218.84 871.92,217.38 872.44,202.48 872.96,190.66 873.47,193.87 873.99,196.46 874.51,203.71 875.02,215.38 875.54,235.80 876.06,236.53 876.57,233.89 877.09,226.18 877.61,227.73 878.13,229.92 878.64,232.06 879.16,253.01 879.68,234.37 880.19,213.78 880.71,216.57 881.23,207.59 881.75,205.26 882.26,206.92 882.78,216.62 883.30,232.17 883.81,218.14 884.33,212.07 884.85,212.57 885.37,226.89 885.88,227.59 886.40,225.85 886.92,250.40 887.43,222.98 887.95,219.41 888.47,220.19 888.98,223.85 889.50,223.96 890.02,239.74 890.54,246.40 891.05,259.62 891.57,261.98 892.09,249.13 892.60,224.69 893.12,216.65 893.64,208.44 894.16,204.39 894.67,204.73 895.19,201.44 895.71,201.07 896.22,200.48 896.74,199.97 897.26,197.70 897.78,200.65 898.29,212.57 898.81,221.46 899.33,223.74 899.84,228.12 900.36,239.32 900.88,237.66 901.39,221.82 901.91,230.12 902.43,229.50 902.95,248.46 903.46,257.88 903.98,227.39 904.50,220.11 905.01,212.77 905.53,204.11 906.05,190.13 906.57,190.02 907.08,194.12 907.60,187.09 908.12,183.89 908.63,201.44 909.15,202.28 909.67,207.74 910.18,228.74 910.70,223.85 911.22,230.68 911.74,245.39 912.25,257.23 912.77,240.33 913.29,232.12 913.80,228.07 914.32,235.07 914.84,236.00 915.36,250.00 915.87,251.04 916.39,261.65 916.91,239.54 917.42,216.79 917.94,216.65 918.46,213.50 918.98,212.54 919.49,212.91 920.01,203.40 920.53,201.32 921.04,206.19 921.56,206.22 922.08,203.40 922.59,203.38 923.11,210.18 923.63,214.60 924.15,243.14 924.66,256.42 925.18,244.63 925.70,246.88 926.21,234.90 926.73,199.13 927.25,180.09 927.77,192.21 928.28,211.95 928.80,223.32 929.32,239.12 929.83,247.98 930.35,251.47 930.87,252.68 931.39,243.96 931.90,236.14 932.42,234.93 932.94,234.00 933.45,228.21 933.97,223.29 934.49,230.66 935.00,234.48 935.52,243.31 936.04,251.55 936.56,264.15 937.07,261.34 937.59,262.32 938.11,260.75 938.62,238.73 939.14,232.29 939.66,230.91 940.18,230.01 940.69,247.33 941.21,257.91 941.73,261.68 942.24,261.51 942.76,256.95 943.28,258.64 943.80,258.50 944.31,245.59 944.83,235.13 945.35,232.20 945.86,234.68 946.38,234.79 946.90,229.14 947.41,227.31 947.93,222.92 948.45,227.56 948.97,226.10 949.48,228.63 950.00,224.16" fill="none" stroke="#222222" stroke-width="2.4"/>
<polyline points="72.00,130.27 72.52,129.18 73.03,139.03 73.55,159.27 74.07,173.99 74.59,195.25 75.10,181.37 75.62,225.87 76.14,238.80 76.65,251.89 77.17,241.34 77.69,242.89 78.20,241.60 78.72,220.28 79.24,214.90 79.76,213.65 80.27,193.51 80.79,208.73 81.31,213.83 81.82,231.50 82.34,227.57 82.86,223.37 83.38,207.82 83.89,194.34 84.41,181.70 84.93,176.59 85.44,191.16 85.96,178.11 86.48,226.23 87.00,231.00 87.51,245.14 88.03,245.75 88.55,231.41 89.06,225.53 89.58,237.21 90.10,235.33 90.61,240.54 91.13,245.57 91.65,242.27 92.17,238.06 92.68,240.34 93.20,215.83 93.72,238.63 94.23,246.99 94.75,235.25 95.27,232.95 95.79,208.23 96.30,185.00 96.82,219.34 97.34,205.64 97.85,200.02 98.37,212.59 98.89,222.53 99.41,214.64 99.92,198.18 100.44,196.91 100.96,227.81 101.47,264.51 101.99,262.99 102.51,254.65 103.02,225.07 103.54,236.49 104.06,258.32 104.58,250.03 105.09,226.74 105.61,184.53 106.13,173.80 106.64,229.72 107.16,210.34 107.68,224.55 108.20,184.36 108.71,180.66 109.23,161.22 109.75,155.46 110.26,156.17 110.78,173.20 111.30,193.91 111.82,216.34 112.33,254.15 112.85,251.53 113.37,247.73 113.88,260.21 114.40,264.31 114.92,247.62 115.43,250.57 115.95,244.29 116.47,241.69 116.99,240.17 117.50,240.47 118.02,255.71 118.54,276.10 119.05,279.66 119.57,276.51 120.09,254.52 120.61,218.71 121.12,177.61 121.64,196.13 122.16,201.03 122.67,218.60 123.19,234.74 123.71,249.14 124.22,242.70 124.74,260.37 125.26,293.44 125.78,287.22 126.29,269.38 126.81,281.59 127.33,287.63 127.84,278.79 128.36,272.65 128.88,246.11 129.40,259.79 129.91,259.09 130.43,269.93 130.95,242.22 131.46,230.94 131.98,224.82 132.50,220.81 133.02,226.45 133.53,213.07 134.05,197.34 134.57,201.29 135.08,192.98 135.60,192.57 136.12,234.19 136.63,269.13 137.15,283.70 137.67,282.83 138.19,292.77 138.70,282.34 139.22,274.30 139.74,268.41 140.25,263.66 140.77,243.47 141.29,247.59 141.81,247.70 142.32,243.64 142.84,225.34 143.36,212.48 143.87,211.05 144.39,200.31 144.91,193.24 145.43,216.91 145.94,207.66 146.46,211.84 146.98,233.87 147.49,252.09 148.01,258.10 148.53,241.80 149.04,199.21 149.56,211.50 150.08,202.52 150.60,210.22 151.11,208.64 151.63,223.62 152.15,221.59 152.66,246.42 153.18,256.42 153.70,225.11 154.22,239.42 154.73,247.02 155.25,209.13 155.77,251.53 156.28,233.40 156.80,240.07 157.32,262.42 157.84,270.20 158.35,252.76 158.87,254.12 159.39,236.55 159.90,235.83 160.42,240.55 160.94,258.55 161.45,261.68 161.97,286.02 162.49,295.23 163.01,282.30 163.52,264.67 164.04,257.95 164.56,245.24 165.07,255.26 165.59,249.62 166.11,251.27 166.63,271.21 167.14,272.05 167.66,312.32 168.18,299.05 168.69,284.64 169.21,271.85 169.73,266.61 170.24,258.03 170.76,231.24 171.28,223.03 171.80,220.49 172.31,227.47 172.83,247.37 173.35,256.65 173.86,284.11 174.38,282.49 174.90,257.02 175.42,245.33 175.93,245.68 176.45,256.77 176.97,251.49 177.48,257.55 178.00,234.93 178.52,215.11 179.04,239.26 179.55,218.61 180.07,177.45 180.59,151.41 181.10,139.67 181.62,154.16 182.14,165.89 182.65,178.41 183.17,181.05 183.69,177.51 184.21,181.65 184.72,196.62 185.24,221.26 185.76,237.11 186.27,259.24 186.79,263.81 187.31,253.15 187.83,257.39 188.34,218.21 188.86,268.97 189.38,253.03 189.89,267.75 190.41,238.11 190.93,244.65 191.45,240.04 191.96,242.74 192.48,203.96 193.00,206.12 193.51,205.18 194.03,184.94 194.55,203.57 195.06,197.98 195.58,242.07 196.10,255.07 196.62,216.18 197.13,205.66 197.65,192.70 198.17,206.27 198.68,240.25 199.20,240.97 199.72,255.43 200.24,262.62 200.75,285.52 201.27,264.71 201.79,267.19 202.30,253.11 202.82,241.34 203.34,190.89 203.86,191.51 204.37,211.47 204.89,224.21 205.41,194.82 205.92,196.92 206.44,201.78 206.96,196.98 207.47,181.51 207.99,188.75 208.51,179.72 209.03,208.50 209.54,243.95 210.06,281.21 210.58,260.38 211.09,260.40 211.61,287.68 212.13,304.39 212.65,293.56 213.16,291.69 213.68,271.57 214.20,241.16 214.71,229.25 215.23,254.42 215.75,247.70 216.27,219.10 216.78,221.17 217.30,252.38 217.82,258.79 218.33,278.72 218.85,293.53 219.37,308.79 219.88,300.27 220.40,274.91 220.92,272.30 221.44,246.93 221.95,264.49 222.47,256.13 222.99,255.79 223.50,247.71 224.02,256.86 224.54,292.84 225.06,289.11 225.57,270.61 226.09,257.93 226.61,266.58 227.12,242.48 227.64,222.42 228.16,196.22 228.67,180.64 229.19,200.49 229.71,220.27 230.23,270.93 230.74,273.81 231.26,263.12 231.78,229.34 232.29,220.32 232.81,213.50 233.33,192.54 233.85,212.82 234.36,222.83 234.88,241.44 235.40,235.12 235.91,219.93 236.43,212.50 236.95,235.48 237.47,229.53 237.98,230.87 238.50,230.22 239.02,196.24 239.53,181.47 240.05,187.26 240.57,174.59 241.08,169.99 241.60,211.77 242.12,248.29 242.64,215.27 243.15,213.13 243.67,232.62 244.19,215.67 244.70,216.20 245.22,221.20 245.74,230.63 246.26,252.82 246.77,231.70 247.29,232.30 247.81,262.23 248.32,246.49 248.84,240.13 249.36,209.78 249.88,206.84 250.39,185.41 250.91,178.84 251.43,190.07 251.94,186.97 252.46,192.31 252.98,188.80 253.49,178.01 254.01,195.46 254.53,223.57 255.05,192.32 255.56,233.54 256.08,260.32 256.60,270.33 257.11,249.86 257.63,242.48 258.15,247.74 258.67,261.11 259.18,240.07 259.70,249.57 260.22,255.63 260.73,205.91 261.25,213.94 261.77,222.67 262.29,225.03 262.80,213.29 263.32,202.73 263.84,191.63 264.35,185.12 264.87,175.73 265.39,180.48 265.90,199.17 266.42,203.10 266.94,182.08 267.46,189.79 267.97,201.03 268.49,186.00 269.01,174.24 269.52,206.87 270.04,194.04 270.56,196.99 271.08,198.38 271.59,194.58 272.11,167.36 272.63,165.20 273.14,141.87 273.66,150.28 274.18,151.52 274.69,217.72 275.21,260.76 275.73,255.07 276.25,243.03 276.76,255.68 277.28,231.98 277.80,220.01 278.31,211.55 278.83,214.39 279.35,189.57 279.87,194.17 280.38,198.94 280.90,208.79 281.42,194.08 281.93,193.17 282.45,221.61 282.97,207.03 283.49,239.96 284.00,275.56 284.52,283.62 285.04,245.33 285.55,228.66 286.07,237.39 286.59,232.47 287.10,230.37 287.62,225.81 288.14,206.12 288.66,200.17 289.17,229.29 289.69,246.99 290.21,245.13 290.72,233.26 291.24,242.34 291.76,257.45 292.28,239.55 292.79,185.08 293.31,184.18 293.83,171.36 294.34,199.74 294.86,226.18 295.38,212.46 295.90,196.46 296.41,191.83 296.93,228.56 297.45,214.67 297.96,219.07 298.48,196.45 299.00,234.48 299.51,234.32 300.03,210.00 300.55,217.42 301.07,207.97 301.58,188.86 302.10,193.92 302.62,202.36 303.13,204.27 303.65,167.20 304.17,180.10 304.69,190.99 305.20,161.37 305.72,175.25 306.24,193.22 306.75,165.52 307.27,184.71 307.79,238.08 308.31,233.76 308.82,215.84 309.34,216.85 309.86,184.83 310.37,201.53 310.89,225.22 311.41,248.04 311.92,260.23 312.44,267.54 312.96,259.20 313.48,235.03 313.99,229.23 314.51,213.44 315.03,202.19 315.54,194.08 316.06,184.26 316.58,229.81 317.10,241.83 317.61,267.74 318.13,261.19 318.65,260.92 319.16,281.27 319.68,285.90 320.20,273.85 320.71,257.77 321.23,238.22 321.75,232.86 322.27,245.84 322.78,231.94 323.30,272.22 323.82,297.48 324.33,301.85 324.85,282.31 325.37,274.43 325.89,248.20 326.40,254.84 326.92,249.01 327.44,250.36 327.95,253.21 328.47,236.21 328.99,246.39 329.51,248.38 330.02,265.53 330.54,239.09 331.06,201.30 331.57,230.17 332.09,205.03 332.61,221.60 333.12,237.04 333.64,250.02 334.16,269.93 334.68,285.50 335.19,301.12 335.71,289.08 336.23,283.78 336.74,272.86 337.26,273.85 337.78,283.79 338.30,283.24 338.81,269.84 339.33,272.78 339.85,273.15 340.36,286.88 340.88,290.59 341.40,295.56 341.92,307.62 342.43,266.22 342.95,256.07 343.47,261.39 343.98,254.92 344.50,254.41 345.02,248.26 345.53,223.99 346.05,248.45 346.57,271.77 347.09,286.44 347.60,289.58 348.12,300.96 348.64,317.49 349.15,300.08 349.67,294.64 350.19,277.17 350.71,262.05 351.22,245.12 351.74,256.06 352.26,235.10 352.77,238.26 353.29,242.09 353.81,251.77 354.33,258.35 354.84,245.42 355.36,220.30 355.88,238.32 356.39,209.54 356.91,197.01 357.43,182.04 357.94,198.00 358.46,222.76 358.98,236.23 359.50,260.41 360.01,274.97 360.53,286.73 361.05,282.71 361.56,269.38 362.08,238.99 362.60,226.29 363.12,233.79 363.63,241.12 364.15,242.44 364.67,215.25 365.18,232.71 365.70,245.42 366.22,234.81 366.73,249.59 367.25,224.85 367.77,208.17 368.29,204.14 368.80,179.67 369.32,200.86 369.84,212.38 370.35,214.24 370.87,210.37 371.39,213.53 371.91,207.59 372.42,212.74 372.94,196.42 373.46,206.50 373.97,227.39 374.49,222.77 375.01,185.69 375.53,191.82 376.04,179.62 376.56,188.31 377.08,199.76 377.59,218.42 378.11,185.37 378.63,195.57 379.14,195.01 379.66,208.52 380.18,181.51 380.70,219.51 381.21,228.68 381.73,249.95 382.25,231.26 382.76,230.94 383.28,240.34 383.80,222.56 384.32,212.09 384.83,223.94 385.35,216.64 385.87,222.63 386.38,244.50 386.90,226.25 387.42,206.36 387.94,208.40 388.45,215.01 388.97,215.99 389.49,221.73 390.00,243.66 390.52,247.57 391.04,206.38 391.55,212.20 392.07,202.25 392.59,186.56 393.11,205.40 393.62,210.30 394.14,219.45 394.66,219.66 395.17,178.52 395.69,188.95 396.21,224.75 396.73,173.82 397.24,181.82 397.76,213.43 398.28,253.09 398.79,270.76 399.31,256.19 399.83,272.66 400.35,258.16 400.86,254.33 401.38,254.16 401.90,245.59 402.41,219.52 402.93,223.47 403.45,245.68 403.96,269.11 404.48,268.39 405.00,267.03 405.52,245.54 406.03,243.68 406.55,225.02 407.07,222.86 407.58,204.18 408.10,209.15 408.62,199.67 409.14,207.62 409.65,227.01 410.17,224.92 410.69,201.98 411.20,229.83 411.72,249.76 412.24,234.60 412.76,196.25 413.27,181.99 413.79,168.27 414.31,167.76 414.82,190.41 415.34,202.66 415.86,237.77 416.37,246.82 416.89,250.92 417.41,225.66 417.93,197.98 418.44,205.06 418.96,202.41 419.48,204.16 419.99,195.08 420.51,187.48 421.03,209.64 421.55,253.30 422.06,252.60 422.58,253.08 423.10,227.91 423.61,194.00 424.13,194.11 424.65,189.04 425.16,190.53 425.68,173.25 426.20,183.28 426.72,171.36 427.23,174.43 427.75,195.64 428.27,188.94 428.78,181.24 429.30,171.20 429.82,164.36 430.34,187.85 430.85,173.14 431.37,169.47 431.89,191.46 432.40,162.77 432.92,160.31 433.44,212.52 433.96,242.89 434.47,246.81 434.99,225.84 435.51,216.36 436.02,220.57 436.54,211.21 437.06,187.02 437.57,201.48 438.09,213.37 438.61,213.13 439.13,258.30 439.64,242.47 440.16,268.00 440.68,272.44 441.19,239.67 441.71,223.35 442.23,236.62 442.75,227.90 443.26,211.05 443.78,176.25 444.30,176.25 444.81,186.80 445.33,187.89 445.85,205.77 446.37,200.09 446.88,213.24 447.40,189.56 447.92,184.60 448.43,191.33 448.95,183.84 449.47,163.88 449.98,173.62 450.50,206.33 451.02,222.51 451.54,222.48 452.05,190.11 452.57,159.33 453.09,181.10 453.60,195.68 454.12,219.51 454.64,202.36 455.16,189.29 455.67,187.96 456.19,182.15 456.71,186.02 457.22,207.19 457.74,201.31 458.26,210.81 458.78,226.82 459.29,246.73 459.81,242.43 460.33,210.32 460.84,244.03 461.36,271.71 461.88,272.56 462.39,283.08 462.91,289.62 463.43,293.50 463.95,294.08 464.46,281.64 464.98,267.21 465.50,195.32 466.01,220.10 466.53,206.85 467.05,214.84 467.57,179.08 468.08,176.22 468.60,201.23 469.12,209.03 469.63,205.47 470.15,217.96 470.67,238.49 471.18,249.97 471.70,268.22 472.22,289.94 472.74,274.79 473.25,291.73 473.77,256.63 474.29,251.20 474.80,224.92 475.32,248.26 475.84,246.08 476.36,247.86 476.87,228.95 477.39,219.05 477.91,237.91 478.42,237.89 478.94,192.18 479.46,156.17 479.98,196.81 480.49,224.26 481.01,239.59 481.53,281.45 482.04,266.77 482.56,250.48 483.08,240.76 483.59,224.11 484.11,247.58 484.63,225.14 485.15,192.87 485.66,233.88 486.18,239.54 486.70,231.99 487.21,241.03 487.73,240.42 488.25,244.80 488.77,241.93 489.28,227.18 489.80,239.67 490.32,238.25 490.83,222.42 491.35,234.94 491.87,235.39 492.39,230.65 492.90,229.09 493.42,206.91 493.94,204.08 494.45,161.20 494.97,205.20 495.49,214.23 496.00,242.48 496.52,273.92 497.04,274.84 497.56,259.82 498.07,243.72 498.59,243.74 499.11,226.60 499.62,233.23 500.14,260.54 500.66,278.53 501.18,281.65 501.69,293.82 502.21,286.25 502.73,222.29 503.24,220.61 503.76,205.75 504.28,215.45 504.80,232.34 505.31,219.98 505.83,234.58 506.35,218.72 506.86,201.82 507.38,224.10 507.90,217.39 508.41,237.22 508.93,226.61 509.45,215.67 509.97,219.30 510.48,238.37 511.00,219.77 511.52,245.37 512.03,259.87 512.55,277.97 513.07,274.76 513.59,288.60 514.10,278.14 514.62,273.86 515.14,276.11 515.65,287.65 516.17,279.30 516.69,253.55 517.20,214.79 517.72,188.79 518.24,181.32 518.76,179.20 519.27,166.57 519.79,164.67 520.31,188.81 520.82,203.09 521.34,208.16 521.86,224.91 522.38,269.33 522.89,290.33 523.41,274.44 523.93,242.55 524.44,255.14 524.96,250.08 525.48,247.81 526.00,232.42 526.51,195.61 527.03,200.06 527.55,198.03 528.06,239.04 528.58,244.32 529.10,205.46 529.61,188.76 530.13,183.76 530.65,184.47 531.17,208.33 531.68,201.79 532.20,218.84 532.72,227.87 533.23,252.11 533.75,285.77 534.27,298.22 534.79,283.56 535.30,281.88 535.82,270.52 536.34,260.78 536.85,285.89 537.37,251.97 537.89,249.44 538.41,262.36 538.92,241.93 539.44,264.51 539.96,253.68 540.47,245.17 540.99,241.00 541.51,231.19 542.02,246.02 542.54,229.71 543.06,232.38 543.58,236.54 544.09,234.39 544.61,239.70 545.13,253.63 545.64,226.87 546.16,240.93 546.68,264.64 547.20,255.60 547.71,234.81 548.23,246.99 548.75,229.37 549.26,218.64 549.78,221.46 550.30,238.55 550.82,233.58 551.33,207.23 551.85,187.65 552.37,190.78 552.88,197.18 553.40,193.81 553.92,192.81 554.43,171.69 554.95,150.01 555.47,159.12 555.99,156.96 556.50,158.40 557.02,148.89 557.54,167.29 558.05,200.66 558.57,220.66 559.09,245.71 559.61,242.64 560.12,258.27 560.64,252.55 561.16,236.98 561.67,257.78 562.19,267.13 562.71,226.63 563.22,228.94 563.74,230.58 564.26,227.34 564.78,244.24 565.29,230.43 565.81,240.06 566.33,233.92 566.84,232.65 567.36,232.80 567.88,225.98 568.40,210.89 568.91,217.40 569.43,187.32 569.95,211.93 570.46,244.47 570.98,262.56 571.50,277.58 572.02,281.75 572.53,277.59 573.05,253.12 573.57,244.81 574.08,202.82 574.60,188.21 575.12,189.18 575.63,166.58 576.15,147.03 576.67,144.87 577.19,168.78 577.70,190.37 578.22,208.10 578.74,232.15 579.25,238.57 579.77,220.98 580.29,207.78 580.81,190.48 581.32,195.22 581.84,193.40 582.36,163.45 582.87,157.76 583.39,176.34 583.91,201.17 584.43,228.74 584.94,226.69 585.46,221.30 585.98,186.92 586.49,194.90 587.01,180.40 587.53,183.74 588.04,162.14 588.56,168.98 589.08,183.51 589.60,213.93 590.11,226.73 590.63,212.53 591.15,207.12 591.66,215.87 592.18,246.14 592.70,255.51 593.22,244.62 593.73,244.64 594.25,262.33 594.77,289.97 595.28,299.05 595.80,315.30 596.32,301.49 596.84,251.62 597.35,244.04 597.87,213.31 598.39,204.83 598.90,210.12 599.42,178.00 599.94,187.73 600.45,209.35 600.97,200.71 601.49,176.83 602.01,189.35 602.52,192.91 603.04,181.47 603.56,186.84 604.07,214.45 604.59,236.64 605.11,252.74 605.63,266.93 606.14,274.36 606.66,277.34 607.18,261.91 607.69,232.66 608.21,187.94 608.73,187.99 609.24,171.21 609.76,187.46 610.28,170.56 610.80,157.86 611.31,175.69 611.83,204.11 612.35,210.39 612.86,215.14 613.38,233.60 613.90,215.41 614.42,207.72 614.93,194.98 615.45,181.55 615.97,189.75 616.48,178.58 617.00,181.62 617.52,206.32 618.04,214.34 618.55,237.40 619.07,210.18 619.59,203.12 620.10,199.28 620.62,179.67 621.14,157.36 621.65,166.75 622.17,154.43 622.69,157.71 623.21,187.75 623.72,175.19 624.24,178.32 624.76,164.56 625.27,187.98 625.79,178.31 626.31,164.54 626.83,169.62 627.34,168.20 627.86,176.21 628.38,188.36 628.89,169.19 629.41,178.85 629.93,206.29 630.45,241.78 630.96,296.68 631.48,287.79 632.00,255.76 632.51,253.67 633.03,213.92 633.55,221.56 634.06,207.50 634.58,182.29 635.10,207.61 635.62,243.00 636.13,237.73 636.65,225.79 637.17,243.36 637.68,246.02 638.20,237.12 638.72,205.42 639.24,213.33 639.75,203.47 640.27,223.43 640.79,253.54 641.30,287.36 641.82,280.59 642.34,282.69 642.86,292.85 643.37,255.61 643.89,250.17 644.41,272.29 644.92,259.43 645.44,279.23 645.96,305.36 646.47,305.34 646.99,308.00 647.51,279.34 648.03,257.08 648.54,246.20 649.06,231.06 649.58,209.75 650.09,226.91 650.61,225.50 651.13,234.51 651.65,279.62 652.16,273.01 652.68,278.35 653.20,290.95 653.71,275.12 654.23,274.63 654.75,267.73 655.27,271.73 655.78,270.42 656.30,258.29 656.82,258.26 657.33,246.22 657.85,227.72 658.37,261.41 658.88,247.20 659.40,210.26 659.92,198.73 660.44,177.86 660.95,154.53 661.47,175.45 661.99,178.79 662.50,205.95 663.02,221.55 663.54,196.61 664.06,210.82 664.57,219.12 665.09,190.98 665.61,194.17 666.12,208.92 666.64,202.22 667.16,216.87 667.67,241.01 668.19,234.34 668.71,218.99 669.23,217.82 669.74,240.65 670.26,189.56 670.78,208.52 671.29,208.11 671.81,179.33 672.33,162.46 672.85,150.19 673.36,152.89 673.88,150.96 674.40,162.07 674.91,161.58 675.43,173.97 675.95,190.41 676.47,170.57 676.98,167.33 677.50,186.59 678.02,187.31 678.53,166.78 679.05,195.86 679.57,214.72 680.08,241.22 680.60,238.20 681.12,228.20 681.64,225.70 682.15,210.91 682.67,205.70 683.19,201.97 683.70,159.02 684.22,189.86 684.74,166.49 685.26,186.67 685.77,190.56 686.29,221.27 686.81,247.17 687.32,256.40 687.84,266.73 688.36,286.17 688.88,276.31 689.39,262.44 689.91,251.85 690.43,235.17 690.94,204.97 691.46,207.52 691.98,247.09 692.49,244.43 693.01,241.08 693.53,232.97 694.05,208.30 694.56,225.07 695.08,224.05 695.60,214.54 696.11,201.92 696.63,198.46 697.15,210.64 697.67,197.29 698.18,203.11 698.70,186.32 699.22,181.81 699.73,180.87 700.25,171.75 700.77,174.44 701.29,192.89 701.80,214.50 702.32,259.90 702.84,278.05 703.35,264.55 703.87,244.53 704.39,244.28 704.90,229.78 705.42,213.23 705.94,196.50 706.46,209.28 706.97,226.27 707.49,256.43 708.01,244.78 708.52,231.58 709.04,222.06 709.56,195.99 710.08,207.10 710.59,188.76 711.11,164.58 711.63,159.72 712.14,176.99 712.66,207.21 713.18,218.36 713.69,244.23 714.21,224.58 714.73,211.77 715.25,209.07 715.76,182.54 716.28,187.56 716.80,229.73 717.31,250.62 717.83,262.56 718.35,255.90 718.87,235.47 719.38,247.29 719.90,208.76 720.42,211.49 720.93,222.92 721.45,240.40 721.97,239.77 722.49,249.36 723.00,225.12 723.52,230.28 724.04,229.08 724.55,225.23 725.07,221.88 725.59,213.24 726.10,237.17 726.62,231.03 727.14,248.73 727.66,269.85 728.17,304.38 728.69,285.56 729.21,276.75 729.72,284.63 730.24,279.10 730.76,262.26 731.28,277.07 731.79,273.70 732.31,273.13 732.83,269.72 733.34,283.81 733.86,276.98 734.38,269.77 734.90,259.56 735.41,279.07 735.93,264.48 736.45,247.73 736.96,232.78 737.48,218.34 738.00,160.92 738.51,155.74 739.03,143.09 739.55,149.61 740.07,148.63 740.58,159.80 741.10,182.32 741.62,182.04 742.13,186.79 742.65,197.55 743.17,210.71 743.69,185.84 744.20,173.99 744.72,166.23 745.24,156.92 745.75,166.58 746.27,159.09 746.79,194.20 747.31,223.69 747.82,222.88 748.34,219.92 748.86,215.07 749.37,215.51 749.89,203.00 750.41,189.29 750.92,175.55 751.44,159.69 751.96,151.83 752.48,181.04 752.99,174.85 753.51,207.19 754.03,246.41 754.54,262.09 755.06,239.11 755.58,235.25 756.10,229.66 756.61,206.16 757.13,217.77 757.65,204.20 758.16,230.58 758.68,246.96 759.20,259.82 759.71,265.35 760.23,252.05 760.75,227.27 761.27,224.63 761.78,204.49 762.30,197.27 762.82,174.70 763.33,167.81 763.85,164.32 764.37,181.91 764.89,227.47 765.40,244.47 765.92,246.74 766.44,244.61 766.95,234.49 767.47,244.34 767.99,240.81 768.51,219.94 769.02,200.08 769.54,218.20 770.06,223.49 770.57,222.58 771.09,207.27 771.61,218.55 772.12,196.61 772.64,214.43 773.16,209.23 773.68,197.42 774.19,187.56 774.71,179.62 775.23,180.27 775.74,195.34 776.26,168.95 776.78,163.55 777.30,151.20 777.81,175.44 778.33,200.69 778.85,202.06 779.36,220.91 779.88,238.87 780.40,214.25 780.92,186.85 781.43,183.82 781.95,163.95 782.47,160.72 782.98,167.48 783.50,170.56 784.02,182.08 784.53,192.73 785.05,201.98 785.57,184.83 786.09,190.95 786.60,182.04 787.12,199.66 787.64,211.60 788.15,197.96 788.67,185.25 789.19,168.88 789.71,186.52 790.22,192.01 790.74,203.09 791.26,200.06 791.77,247.89 792.29,243.13 792.81,207.19 793.33,187.55 793.84,156.67 794.36,159.26 794.88,142.00 795.39,140.41 795.91,177.31 796.43,176.65 796.94,180.50 797.46,175.18 797.98,162.11 798.50,169.45 799.01,170.17 799.53,174.62 800.05,168.38 800.56,173.51 801.08,195.40 801.60,205.01 802.12,245.41 802.63,248.40 803.15,263.26 803.67,260.48 804.18,269.29 804.70,275.96 805.22,268.72 805.73,253.46 806.25,264.64 806.77,251.64 807.29,265.47 807.80,252.99 808.32,251.57 808.84,263.85 809.35,302.58 809.87,323.35 810.39,315.56 810.91,298.62 811.42,294.19 811.94,288.07 812.46,282.72 812.97,280.07 813.49,265.99 814.01,276.59 814.53,307.23 815.04,313.97 815.56,308.55 816.08,288.07 816.59,265.41 817.11,261.17 817.63,270.54 818.14,240.34 818.66,232.17 819.18,234.15 819.70,246.83 820.21,263.71 820.73,298.91 821.25,293.25 821.76,285.85 822.28,295.11 822.80,298.49 823.32,273.92 823.83,260.14 824.35,260.54 824.87,239.79 825.38,264.45 825.90,235.73 826.42,214.04 826.94,187.37 827.45,178.69 827.97,193.02 828.49,174.26 829.00,184.15 829.52,162.67 830.04,149.24 830.55,181.82 831.07,209.63 831.59,235.71 832.11,253.88 832.62,275.04 833.14,292.46 833.66,278.72 834.17,256.05 834.69,252.99 835.21,220.35 835.73,210.16 836.24,229.93 836.76,224.61 837.28,224.71 837.79,207.73 838.31,221.03 838.83,243.22 839.35,274.91 839.86,264.45 840.38,254.28 840.90,237.22 841.41,233.05 841.93,268.61 842.45,230.06 842.96,247.55 843.48,239.40 844.00,248.44 844.52,253.28 845.03,237.47 845.55,245.39 846.07,229.35 846.58,225.34 847.10,222.77 847.62,216.84 848.14,201.12 848.65,209.02 849.17,197.41 849.69,166.18 850.20,193.48 850.72,218.92 851.24,242.78 851.76,259.78 852.27,275.16 852.79,297.40 853.31,271.19 853.82,256.32 854.34,245.44 854.86,239.80 855.37,237.62 855.89,242.66 856.41,246.00 856.93,264.28 857.44,274.19 857.96,268.40 858.48,246.97 858.99,234.41 859.51,243.84 860.03,225.88 860.55,228.01 861.06,207.78 861.58,208.61 862.10,203.00 862.61,234.06 863.13,253.06 863.65,219.28 864.16,190.65 864.68,172.15 865.20,192.11 865.72,213.39 866.23,229.63 866.75,249.32 867.27,231.13 867.78,234.23 868.30,226.06 868.82,242.74 869.34,244.42 869.85,241.81 870.37,222.12 870.89,227.40 871.40,242.66 871.92,218.16 872.44,223.92 872.96,212.97 873.47,205.01 873.99,180.55 874.51,183.93 875.02,195.91 875.54,203.98 876.06,222.81 876.57,231.49 877.09,248.92 877.61,254.52 878.13,272.95 878.64,266.68 879.16,270.22 879.68,256.06 880.19,242.61 880.71,224.79 881.23,231.08 881.75,216.30 882.26,206.35 882.78,205.37 883.30,222.01 883.81,217.49 884.33,191.17 884.85,184.01 885.37,198.07 885.88,187.86 886.40,229.16 886.92,235.47 887.43,215.89 887.95,206.22 888.47,215.28 888.98,194.37 889.50,202.16 890.02,216.60 890.54,221.73 891.05,186.52 891.57,180.68 892.09,197.77 892.60,231.43 893.12,219.48 893.64,222.59 894.16,270.52 894.67,249.69 895.19,233.07 895.71,227.96 896.22,217.54 896.74,212.88 897.26,213.25 897.78,232.35 898.29,227.42 898.81,209.48 899.33,205.63 899.84,209.04 900.36,223.16 900.88,220.30 901.39,203.20 901.91,221.99 902.43,225.97 902.95,220.83 903.46,242.50 903.98,268.76 904.50,284.98 905.01,274.35 905.53,281.46 906.05,202.56 906.57,170.49 907.08,158.93 907.60,187.26 908.12,213.60 908.63,186.37 909.15,201.75 909.67,201.68 910.18,219.26 910.70,237.11 911.22,217.48 911.74,249.67 912.25,241.57 912.77,236.54 913.29,258.61 913.80,264.82 914.32,262.48 914.84,263.20 915.36,264.52 915.87,246.16 916.39,205.19 916.91,213.20 917.42,216.04 917.94,159.81 918.46,175.75 918.98,187.37 919.49,213.91 920.01,219.17 920.53,202.45 921.04,183.69 921.56,184.83 922.08,186.92 922.59,167.72 923.11,200.98 923.63,217.54 924.15,210.24 924.66,199.74 925.18,172.56 925.70,203.38 926.21,234.59 926.73,267.70 927.25,273.79 927.77,255.55 928.28,213.24 928.80,204.64 929.32,188.04 929.83,246.55 930.35,263.65 930.87,243.58 931.39,277.54 931.90,310.79 932.42,287.45 932.94,282.12 933.45,293.12 933.97,314.04 934.49,296.84 935.00,291.06 935.52,281.26 936.04,268.26 936.56,252.94 937.07,282.97 937.59,298.32 938.11,315.06 938.62,320.78 939.14,332.52 939.66,307.40 940.18,285.09 940.69,294.27 941.21,286.26 941.73,267.58 942.24,278.77 942.76,306.09 943.28,320.32 943.80,305.15 944.31,311.48 944.83,331.27 945.35,331.44 945.86,325.22 946.38,324.08 946.90,321.18 947.41,308.66 947.93,304.34 948.45,294.80 948.97,283.32 949.48,277.95 950.00,290.09" fill="none" stroke="#5b3f8c" stroke-width="2.0"/>
<polyline points="72.00,193.92 72.52,197.95 73.03,211.09 73.55,220.48 74.07,223.50 74.59,222.47 75.10,225.14 75.62,228.40 76.14,224.21 76.65,226.45 77.17,216.88 77.69,216.80 78.20,224.32 78.72,228.47 79.24,226.95 79.76,220.57 80.27,225.02 80.79,208.07 81.31,196.48 81.82,191.93 82.34,189.15 82.86,191.71 83.38,192.37 83.89,186.50 84.41,185.49 84.93,191.70 85.44,190.99 85.96,193.04 86.48,192.42 87.00,193.98 87.51,197.67 88.03,200.52 88.55,204.24 89.06,208.29 89.58,202.36 90.10,191.76 90.61,206.00 91.13,203.67 91.65,213.95 92.17,214.92 92.68,208.71 93.20,201.90 93.72,194.50 94.23,188.96 94.75,194.88 95.27,199.11 95.79,196.75 96.30,190.57 96.82,186.98 97.34,190.31 97.85,198.02 98.37,197.49 98.89,201.94 99.41,198.53 99.92,200.43 100.44,208.16 100.96,209.82 101.47,208.59 101.99,208.15 102.51,210.09 103.02,208.81 103.54,212.28 104.06,214.76 104.58,216.60 105.09,217.51 105.61,213.11 106.13,204.21 106.64,214.17 107.16,206.06 107.68,207.72 108.20,205.04 108.71,174.84 109.23,184.57 109.75,199.67 110.26,225.96 110.78,239.33 111.30,248.48 111.82,250.46 112.33,244.05 112.85,230.01 113.37,234.55 113.88,220.17 114.40,226.61 114.92,222.99 115.43,223.48 115.95,228.08 116.47,231.01 116.99,229.04 117.50,234.95 118.02,237.33 118.54,229.64 119.05,223.37 119.57,207.15 120.09,179.09 120.61,183.68 121.12,202.87 121.64,209.98 122.16,215.38 122.67,223.85 123.19,242.92 123.71,246.10 124.22,245.34 124.74,238.20 125.26,234.91 125.78,232.89 126.29,233.05 126.81,223.30 127.33,220.14 127.84,223.75 128.36,223.13 128.88,218.20 129.40,218.48 129.91,222.87 130.43,218.80 130.95,215.58 131.46,201.18 131.98,187.09 132.50,186.81 133.02,187.14 133.53,192.04 134.05,191.29 134.57,195.17 135.08,210.01 135.60,222.87 136.12,225.10 136.63,216.58 137.15,210.67 137.67,217.10 138.19,213.40 138.70,211.91 139.22,214.33 139.74,212.89 140.25,201.92 140.77,201.46 141.29,202.36 141.81,201.65 142.32,200.29 142.84,197.87 143.36,196.94 143.87,205.01 144.39,213.94 144.91,223.70 145.43,229.63 145.94,227.33 146.46,222.42 146.98,217.93 147.49,214.98 148.01,216.74 148.53,217.21 149.04,216.52 149.56,217.88 150.08,211.48 150.60,216.49 151.11,215.08 151.63,212.00 152.15,209.76 152.66,207.93 153.18,213.32 153.70,224.49 154.22,226.05 154.73,232.84 155.25,240.56 155.77,241.24 156.28,234.03 156.80,226.03 157.32,224.97 157.84,225.53 158.35,228.25 158.87,232.69 159.39,240.77 159.90,240.70 160.42,243.39 160.94,239.11 161.45,244.15 161.97,238.08 162.49,207.95 163.01,213.76 163.52,210.57 164.04,208.56 164.56,211.78 165.07,217.37 165.59,225.48 166.11,225.09 166.63,227.72 167.14,234.33 167.66,226.35 168.18,225.74 168.69,217.18 169.21,214.73 169.73,219.21 170.24,222.55 170.76,225.16 171.28,226.83 171.80,235.71 172.31,238.35 172.83,241.24 173.35,239.42 173.86,238.11 174.38,227.27 174.90,226.82 175.42,222.60 175.93,217.30 176.45,223.29 176.97,234.90 177.48,230.10 178.00,220.84 178.52,210.86 179.04,203.41 179.55,198.01 180.07,197.51 180.59,191.21 181.10,180.17 181.62,176.80 182.14,170.20 182.65,185.43 183.17,173.94 183.69,198.73 184.21,185.15 184.72,212.69 185.24,196.82 185.76,208.80 186.27,205.07 186.79,215.45 187.31,204.38 187.83,224.74 188.34,232.59 188.86,222.81 189.38,222.16 189.89,221.09 190.41,187.54 190.93,192.29 191.45,197.63 191.96,190.17 192.48,186.24 193.00,196.54 193.51,194.60 194.03,203.06 194.55,197.79 195.06,175.03 195.58,178.23 196.10,176.14 196.62,171.29 197.13,177.11 197.65,214.41 198.17,227.99 198.68,215.42 199.20,207.74 199.72,203.25 200.24,199.43 200.75,195.03 201.27,182.69 201.79,184.44 202.30,184.00 202.82,185.44 203.34,181.83 203.86,175.85 204.37,154.63 204.89,159.77 205.41,170.13 205.92,170.78 206.44,165.02 206.96,162.64 207.47,171.67 207.99,170.46 208.51,182.16 209.03,188.09 209.54,187.09 210.06,189.37 210.58,189.74 211.09,199.53 211.61,187.16 212.13,186.63 212.65,180.18 213.16,186.40 213.68,183.38 214.20,176.49 214.71,185.16 215.23,186.08 215.75,178.72 216.27,184.53 216.78,200.15 217.30,220.71 217.82,244.42 218.33,244.09 218.85,231.28 219.37,218.99 219.88,216.40 220.40,199.89 220.92,212.40 221.44,219.43 221.95,227.65 222.47,235.51 222.99,234.18 223.50,229.27 224.02,227.84 224.54,226.57 225.06,225.59 225.57,225.11 226.09,222.53 226.61,225.15 227.12,219.86 227.64,215.03 228.16,212.89 228.67,215.31 229.19,213.78 229.71,211.33 230.23,207.80 230.74,204.86 231.26,192.48 231.78,192.51 232.29,202.69 232.81,205.19 233.33,207.83 233.85,213.22 234.36,216.80 234.88,209.21 235.40,213.62 235.91,219.98 236.43,222.18 236.95,215.73 237.47,204.47 237.98,196.66 238.50,192.86 239.02,196.42 239.53,203.31 240.05,207.03 240.57,202.76 241.08,213.65 241.60,216.56 242.12,213.23 242.64,218.87 243.15,220.52 243.67,220.72 244.19,220.61 244.70,220.35 245.22,222.64 245.74,219.59 246.26,222.48 246.77,226.90 247.29,223.51 247.81,226.93 248.32,221.30 248.84,203.44 249.36,198.82 249.88,201.33 250.39,198.05 250.91,196.15 251.43,200.38 251.94,207.52 252.46,198.53 252.98,198.78 253.49,224.52 254.01,235.58 254.53,211.64 255.05,240.44 255.56,242.64 256.08,243.41 256.60,230.45 257.11,225.17 257.63,228.78 258.15,221.97 258.67,231.88 259.18,239.78 259.70,240.58 260.22,232.86 260.73,221.68 261.25,217.47 261.77,215.36 262.29,212.00 262.80,213.13 263.32,215.74 263.84,211.57 264.35,211.07 264.87,208.75 265.39,207.42 265.90,208.60 266.42,201.94 266.94,206.89 267.46,215.40 267.97,227.30 268.49,232.20 269.01,233.15 269.52,205.57 270.04,203.12 270.56,217.22 271.08,211.23 271.59,221.20 272.11,218.83 272.63,219.94 273.14,211.19 273.66,211.45 274.18,214.66 274.69,216.00 275.21,209.31 275.73,209.94 276.25,212.99 276.76,197.51 277.28,191.72 277.80,201.99 278.31,202.23 278.83,198.99 279.35,199.95 279.87,208.46 280.38,202.43 280.90,203.79 281.42,216.59 281.93,230.13 282.45,233.36 282.97,228.48 283.49,229.78 284.00,215.78 284.52,202.07 285.04,202.38 285.55,202.83 286.07,201.34 286.59,202.78 287.10,199.48 287.62,193.21 288.14,191.67 288.66,195.91 289.17,198.08 289.69,209.52 290.21,200.21 290.72,214.75 291.24,212.07 291.76,217.73 292.28,222.24 292.79,243.68 293.31,243.44 293.83,237.12 294.34,229.40 294.86,237.60 295.38,242.49 295.90,246.98 296.41,247.55 296.93,248.60 297.45,232.13 297.96,230.60 298.48,221.34 299.00,215.04 299.51,220.00 300.03,222.76 300.55,202.76 301.07,210.35 301.58,221.37 302.10,214.86 302.62,208.67 303.13,218.69 303.65,216.93 304.17,210.92 304.69,213.63 305.20,223.67 305.72,216.91 306.24,217.60 306.75,214.81 307.27,212.27 307.79,212.14 308.31,222.14 308.82,224.73 309.34,230.63 309.86,234.77 310.37,236.10 310.89,232.43 311.41,229.39 311.92,229.18 312.44,227.75 312.96,230.41 313.48,226.30 313.99,227.90 314.51,226.43 315.03,222.38 315.54,223.28 316.06,239.79 316.58,234.37 317.10,244.55 317.61,238.70 318.13,239.15 318.65,232.75 319.16,226.90 319.68,224.66 320.20,232.76 320.71,237.83 321.23,245.83 321.75,245.25 322.27,241.69 322.78,246.42 323.30,250.90 323.82,241.69 324.33,236.06 324.85,202.57 325.37,234.49 325.89,246.13 326.40,237.07 326.92,238.69 327.44,236.16 327.95,228.06 328.47,223.62 328.99,218.34 329.51,218.12 330.02,214.52 330.54,221.98 331.06,204.86 331.57,209.30 332.09,222.17 332.61,235.48 333.12,240.05 333.64,247.23 334.16,249.87 334.68,237.89 335.19,229.65 335.71,217.18 336.23,208.61 336.74,219.30 337.26,220.86 337.78,216.09 338.30,218.39 338.81,226.79 339.33,228.30 339.85,233.06 340.36,230.63 340.88,234.41 341.40,231.52 341.92,233.44 342.43,236.60 342.95,230.72 343.47,224.87 343.98,225.60 344.50,225.19 345.02,233.04 345.53,248.69 346.05,253.83 346.57,252.37 347.09,248.11 347.60,245.65 348.12,242.63 348.64,237.62 349.15,223.11 349.67,232.82 350.19,228.91 350.71,234.36 351.22,231.98 351.74,230.43 352.26,230.84 352.77,228.18 353.29,218.63 353.81,215.65 354.33,212.25 354.84,209.74 355.36,195.31 355.88,186.43 356.39,193.90 356.91,198.44 357.43,211.47 357.94,218.69 358.46,211.10 358.98,223.38 359.50,219.66 360.01,213.44 360.53,207.45 361.05,215.97 361.56,221.52 362.08,220.48 362.60,214.51 363.12,215.86 363.63,222.10 364.15,217.24 364.67,217.59 365.18,223.09 365.70,214.42 366.22,213.37 366.73,213.91 367.25,221.76 367.77,233.83 368.29,221.73 368.80,213.83 369.32,220.78 369.84,230.09 370.35,234.93 370.87,239.06 371.39,238.19 371.91,223.94 372.42,223.96 372.94,214.81 373.46,221.88 373.97,220.81 374.49,221.93 375.01,222.04 375.53,229.56 376.04,223.60 376.56,223.93 377.08,240.34 377.59,237.64 378.11,231.80 378.63,236.42 379.14,239.66 379.66,237.64 380.18,246.49 380.70,230.04 381.21,225.82 381.73,220.99 382.25,221.17 382.76,231.20 383.28,231.76 383.80,239.11 384.32,238.29 384.83,231.79 385.35,224.78 385.87,230.85 386.38,228.76 386.90,225.54 387.42,226.59 387.94,229.63 388.45,233.44 388.97,226.23 389.49,223.34 390.00,221.78 390.52,230.01 391.04,231.49 391.55,244.67 392.07,249.81 392.59,235.43 393.11,231.47 393.62,226.07 394.14,222.70 394.66,225.33 395.17,238.06 395.69,231.36 396.21,238.48 396.73,232.54 397.24,238.20 397.76,236.90 398.28,224.64 398.79,229.63 399.31,225.55 399.83,220.11 400.35,206.55 400.86,209.09 401.38,201.09 401.90,208.42 402.41,206.82 402.93,216.12 403.45,222.30 403.96,218.34 404.48,210.81 405.00,212.22 405.52,218.22 406.03,214.45 406.55,221.03 407.07,218.82 407.58,224.72 408.10,226.07 408.62,218.97 409.14,216.67 409.65,219.80 410.17,215.62 410.69,212.97 411.20,207.56 411.72,203.50 412.24,205.94 412.76,209.61 413.27,208.88 413.79,210.38 414.31,212.41 414.82,212.22 415.34,214.55 415.86,211.78 416.37,210.11 416.89,212.10 417.41,205.90 417.93,206.22 418.44,209.28 418.96,212.51 419.48,210.62 419.99,220.59 420.51,215.08 421.03,210.38 421.55,214.59 422.06,213.14 422.58,208.36 423.10,206.46 423.61,204.60 424.13,208.28 424.65,207.62 425.16,212.28 425.68,211.72 426.20,209.81 426.72,206.48 427.23,207.76 427.75,203.46 428.27,207.74 428.78,202.08 429.30,189.68 429.82,191.34 430.34,200.02 430.85,204.65 431.37,210.81 431.89,213.53 432.40,212.91 432.92,221.94 433.44,216.93 433.96,215.63 434.47,218.99 434.99,203.71 435.51,216.37 436.02,216.39 436.54,215.81 437.06,209.24 437.57,209.44 438.09,211.32 438.61,209.26 439.13,207.88 439.64,210.98 440.16,202.24 440.68,206.32 441.19,207.87 441.71,207.08 442.23,208.94 442.75,207.88 443.26,207.91 443.78,205.12 444.30,208.09 444.81,214.41 445.33,214.32 445.85,206.19 446.37,206.53 446.88,205.96 447.40,210.23 447.92,211.61 448.43,215.68 448.95,214.94 449.47,214.30 449.98,204.03 450.50,204.19 451.02,214.61 451.54,220.72 452.05,218.77 452.57,216.21 453.09,214.61 453.60,197.38 454.12,183.30 454.64,185.32 455.16,185.70 455.67,185.71 456.19,186.07 456.71,186.82 457.22,194.74 457.74,197.81 458.26,203.82 458.78,202.30 459.29,196.04 459.81,203.81 460.33,212.51 460.84,216.50 461.36,213.16 461.88,206.41 462.39,207.26 462.91,200.99 463.43,197.47 463.95,204.75 464.46,209.20 464.98,201.59 465.50,184.65 466.01,183.14 466.53,178.63 467.05,178.92 467.57,175.54 468.08,171.11 468.60,182.80 469.12,190.85 469.63,201.15 470.15,206.07 470.67,199.50 471.18,206.92 471.70,202.21 472.22,201.77 472.74,200.72 473.25,194.89 473.77,198.32 474.29,210.91 474.80,204.45 475.32,206.41 475.84,213.18 476.36,213.96 476.87,223.81 477.39,207.44 477.91,193.11 478.42,185.43 478.94,200.53 479.46,246.06 479.98,239.66 480.49,247.59 481.01,242.25 481.53,236.02 482.04,220.57 482.56,224.63 483.08,224.62 483.59,216.26 484.11,213.38 484.63,212.14 485.15,211.61 485.66,210.73 486.18,215.30 486.70,219.26 487.21,224.37 487.73,228.38 488.25,224.10 488.77,233.26 489.28,239.05 489.80,220.71 490.32,236.59 490.83,228.27 491.35,217.84 491.87,204.34 492.39,205.27 492.90,210.68 493.42,207.70 493.94,213.45 494.45,215.00 494.97,218.72 495.49,209.95 496.00,209.71 496.52,200.42 497.04,192.71 497.56,200.71 498.07,198.97 498.59,191.49 499.11,220.68 499.62,234.48 500.14,246.53 500.66,238.52 501.18,219.56 501.69,212.29 502.21,194.42 502.73,172.82 503.24,159.65 503.76,155.07 504.28,156.75 504.80,156.48 505.31,155.12 505.83,165.34 506.35,148.28 506.86,144.93 507.38,148.03 507.90,148.88 508.41,166.85 508.93,177.78 509.45,183.19 509.97,198.68 510.48,194.44 511.00,201.37 511.52,187.26 512.03,210.63 512.55,212.58 513.07,237.25 513.59,218.57 514.10,245.70 514.62,230.72 515.14,223.78 515.65,212.31 516.17,229.61 516.69,212.58 517.20,211.58 517.72,202.74 518.24,213.43 518.76,218.47 519.27,217.19 519.79,222.77 520.31,232.34 520.82,235.31 521.34,234.86 521.86,238.70 522.38,240.83 522.89,225.58 523.41,239.92 523.93,241.27 524.44,230.07 524.96,237.69 525.48,234.05 526.00,234.01 526.51,229.99 527.03,229.22 527.55,214.19 528.06,208.06 528.58,195.85 529.10,194.68 529.61,209.49 530.13,204.75 530.65,212.26 531.17,213.00 531.68,226.83 532.20,239.17 532.72,238.37 533.23,236.76 533.75,225.73 534.27,230.20 534.79,218.82 535.30,201.03 535.82,202.07 536.34,209.62 536.85,212.11 537.37,212.83 537.89,194.09 538.41,202.97 538.92,215.98 539.44,201.52 539.96,197.66 540.47,200.77 540.99,188.01 541.51,182.08 542.02,183.68 542.54,176.60 543.06,180.23 543.58,197.56 544.09,200.35 544.61,186.84 545.13,183.63 545.64,190.27 546.16,178.72 546.68,174.65 547.20,186.22 547.71,189.44 548.23,189.22 548.75,184.71 549.26,180.34 549.78,185.65 550.30,183.26 550.82,182.19 551.33,186.68 551.85,205.41 552.37,189.32 552.88,183.16 553.40,179.80 553.92,177.40 554.43,171.30 554.95,166.50 555.47,181.50 555.99,186.27 556.50,188.80 557.02,193.70 557.54,200.39 558.05,191.96 558.57,198.25 559.09,190.76 559.61,205.56 560.12,209.96 560.64,208.69 561.16,209.93 561.67,197.85 562.19,197.48 562.71,209.35 563.22,211.52 563.74,217.91 564.26,216.84 564.78,211.06 565.29,209.38 565.81,212.20 566.33,209.17 566.84,206.42 567.36,221.03 567.88,218.21 568.40,220.69 568.91,230.63 569.43,241.78 569.95,249.02 570.46,246.91 570.98,238.55 571.50,229.56 572.02,228.14 572.53,219.53 573.05,213.84 573.57,212.39 574.08,209.51 574.60,207.81 575.12,207.77 575.63,207.19 576.15,207.50 576.67,212.93 577.19,215.34 577.70,214.28 578.22,217.46 578.74,195.80 579.25,192.06 579.77,195.47 580.29,194.08 580.81,202.69 581.32,205.42 581.84,218.15 582.36,210.93 582.87,205.03 583.39,204.69 583.91,204.75 584.43,201.28 584.94,203.54 585.46,198.93 585.98,195.71 586.49,200.46 587.01,196.78 587.53,195.81 588.04,212.35 588.56,224.04 589.08,221.73 589.60,209.33 590.11,208.42 590.63,204.97 591.15,214.80 591.66,228.78 592.18,233.25 592.70,236.05 593.22,237.32 593.73,244.26 594.25,247.46 594.77,249.79 595.28,243.36 595.80,243.37 596.32,235.83 596.84,220.74 597.35,212.15 597.87,208.46 598.39,215.35 598.90,213.40 599.42,210.82 599.94,209.91 600.45,215.66 600.97,221.53 601.49,212.11 602.01,224.15 602.52,230.24 603.04,242.13 603.56,246.99 604.07,246.90 604.59,244.53 605.11,250.06 605.63,252.10 606.14,248.14 606.66,242.82 607.18,230.35 607.69,216.38 608.21,210.47 608.73,208.35 609.24,209.13 609.76,218.39 610.28,205.59 610.80,221.01 611.31,226.00 611.83,226.69 612.35,233.73 612.86,224.23 613.38,218.59 613.90,224.52 614.42,216.64 614.93,232.77 615.45,244.80 615.97,245.21 616.48,239.52 617.00,242.66 617.52,240.10 618.04,240.97 618.55,249.03 619.07,252.39 619.59,235.33 620.10,222.33 620.62,220.43 621.14,215.54 621.65,213.66 622.17,211.00 622.69,206.27 623.21,214.81 623.72,211.00 624.24,213.73 624.76,218.41 625.27,198.30 625.79,207.25 626.31,203.97 626.83,213.90 627.34,219.19 627.86,230.40 628.38,219.18 628.89,230.50 629.41,240.18 629.93,242.59 630.45,235.48 630.96,229.78 631.48,235.13 632.00,218.81 632.51,205.76 633.03,204.75 633.55,205.37 634.06,206.76 634.58,210.09 635.10,211.47 635.62,216.66 636.13,213.35 636.65,225.11 637.17,208.56 637.68,203.82 638.20,218.15 638.72,227.98 639.24,241.76 639.75,251.06 640.27,248.03 640.79,238.19 641.30,236.60 641.82,239.35 642.34,239.60 642.86,243.95 643.37,251.26 643.89,251.10 644.41,250.84 644.92,248.73 645.44,247.40 645.96,243.05 646.47,236.79 646.99,231.57 647.51,219.05 648.03,209.79 648.54,205.26 649.06,205.33 649.58,231.32 650.09,233.24 650.61,241.10 651.13,241.50 651.65,243.35 652.16,249.32 652.68,250.13 653.20,247.68 653.71,242.61 654.23,239.25 654.75,234.20 655.27,240.71 655.78,250.93 656.30,255.04 656.82,254.67 657.33,225.56 657.85,220.67 658.37,214.78 658.88,202.02 659.40,216.93 659.92,231.42 660.44,221.44 660.95,218.15 661.47,221.83 661.99,229.38 662.50,227.69 663.02,230.81 663.54,233.26 664.06,230.68 664.57,235.67 665.09,245.01 665.61,246.33 666.12,244.74 666.64,240.64 667.16,237.80 667.67,240.27 668.19,250.77 668.71,256.89 669.23,244.97 669.74,245.58 670.26,222.18 670.78,210.66 671.29,218.64 671.81,215.56 672.33,207.49 672.85,206.77 673.36,216.73 673.88,225.63 674.40,221.60 674.91,208.28 675.43,204.12 675.95,203.94 676.47,226.14 676.98,234.71 677.50,233.29 678.02,242.20 678.53,232.37 679.05,229.79 679.57,231.72 680.08,234.99 680.60,234.33 681.12,228.18 681.64,220.52 682.15,219.94 682.67,210.87 683.19,201.79 683.70,180.20 684.22,173.99 684.74,190.68 685.26,195.28 685.77,229.42 686.29,231.58 686.81,236.30 687.32,232.68 687.84,223.85 688.36,213.90 688.88,227.34 689.39,231.84 689.91,245.25 690.43,241.24 690.94,239.49 691.46,236.30 691.98,235.15 692.49,239.51 693.01,246.66 693.53,254.91 694.05,255.37 694.56,246.63 695.08,235.73 695.60,230.64 696.11,230.96 696.63,233.63 697.15,231.90 697.67,231.35 698.18,231.85 698.70,233.42 699.22,231.89 699.73,231.94 700.25,242.55 700.77,244.59 701.29,245.03 701.80,240.06 702.32,230.92 702.84,229.56 703.35,230.82 703.87,230.78 704.39,237.41 704.90,245.14 705.42,250.75 705.94,254.62 706.46,256.04 706.97,247.18 707.49,238.14 708.01,224.34 708.52,214.52 709.04,216.23 709.56,212.43 710.08,220.01 710.59,219.67 711.11,219.38 711.63,222.65 712.14,222.70 712.66,222.23 713.18,218.95 713.69,214.70 714.21,224.21 714.73,240.81 715.25,238.84 715.76,233.32 716.28,228.82 716.80,225.03 717.31,213.85 717.83,224.48 718.35,234.51 718.87,240.91 719.38,240.86 719.90,228.21 720.42,220.43 720.93,216.40 721.45,217.00 721.97,216.35 722.49,213.63 723.00,211.39 723.52,210.53 724.04,211.04 724.55,208.58 725.07,207.81 725.59,217.33 726.10,217.75 726.62,226.44 727.14,233.18 727.66,233.94 728.17,223.96 728.69,230.83 729.21,236.45 729.72,216.02 730.24,210.74 730.76,224.99 731.28,225.08 731.79,226.85 732.31,224.14 732.83,220.00 733.34,218.85 733.86,214.53 734.38,210.13 734.90,214.05 735.41,213.60 735.93,208.87 736.45,205.99 736.96,204.61 737.48,204.26 738.00,206.77 738.51,208.19 739.03,215.75 739.55,217.99 740.07,216.51 740.58,214.25 741.10,213.53 741.62,211.86 742.13,211.77 742.65,216.53 743.17,224.65 743.69,222.31 744.20,221.80 744.72,220.83 745.24,225.19 745.75,227.88 746.27,220.46 746.79,219.17 747.31,216.34 747.82,212.85 748.34,211.81 748.86,209.29 749.37,209.53 749.89,211.79 750.41,218.84 750.92,224.56 751.44,229.78 751.96,242.17 752.48,237.01 752.99,233.61 753.51,228.54 754.03,222.32 754.54,213.91 755.06,219.34 755.58,225.54 756.10,238.48 756.61,245.85 757.13,235.48 757.65,230.33 758.16,224.60 758.68,223.61 759.20,213.99 759.71,216.24 760.23,213.75 760.75,209.37 761.27,213.98 761.78,207.49 762.30,210.66 762.82,213.43 763.33,217.81 763.85,220.09 764.37,225.63 764.89,220.14 765.40,221.90 765.92,223.73 766.44,224.68 766.95,222.94 767.47,220.35 767.99,224.01 768.51,217.52 769.02,220.62 769.54,211.70 770.06,199.33 770.57,203.69 771.09,202.80 771.61,206.82 772.12,199.49 772.64,199.12 773.16,194.63 773.68,200.18 774.19,202.39 774.71,206.01 775.23,214.06 775.74,217.10 776.26,217.92 776.78,220.88 777.30,222.15 777.81,224.61 778.33,227.19 778.85,220.58 779.36,211.28 779.88,212.08 780.40,221.44 780.92,226.34 781.43,227.26 781.95,228.49 782.47,216.03 782.98,210.48 783.50,213.67 784.02,207.24 784.53,208.43 785.05,209.02 785.57,218.65 786.09,216.17 786.60,214.91 787.12,209.55 787.64,213.09 788.15,210.60 788.67,219.40 789.19,226.31 789.71,234.20 790.22,237.77 790.74,218.47 791.26,206.70 791.77,210.30 792.29,218.13 792.81,228.59 793.33,228.67 793.84,215.66 794.36,211.41 794.88,215.35 795.39,210.02 795.91,206.94 796.43,199.27 796.94,199.91 797.46,208.84 797.98,201.82 798.50,206.71 799.01,207.24 799.53,201.62 800.05,213.40 800.56,218.76 801.08,218.95 801.60,223.20 802.12,213.75 802.63,211.31 803.15,211.98 803.67,208.77 804.18,211.99 804.70,212.64 805.22,215.50 805.73,223.61 806.25,224.98 806.77,221.87 807.29,222.61 807.80,227.60 808.32,219.34 808.84,218.81 809.35,211.26 809.87,207.47 810.39,209.70 810.91,209.68 811.42,214.24 811.94,199.74 812.46,209.90 812.97,215.60 813.49,223.66 814.01,211.01 814.53,204.70 815.04,196.27 815.56,198.42 816.08,199.28 816.59,201.37 817.11,187.15 817.63,192.92 818.14,207.56 818.66,214.25 819.18,221.55 819.70,220.50 820.21,226.32 820.73,225.14 821.25,225.07 821.76,226.35 822.28,223.40 822.80,217.72 823.32,213.45 823.83,209.01 824.35,212.17 824.87,216.88 825.38,215.12 825.90,214.70 826.42,196.79 826.94,193.61 827.45,188.68 827.97,191.59 828.49,197.77 829.00,201.00 829.52,209.41 830.04,219.28 830.55,223.88 831.07,223.95 831.59,224.16 832.11,228.27 832.62,227.78 833.14,225.11 833.66,211.85 834.17,202.49 834.69,201.44 835.21,218.17 835.73,239.03 836.24,212.94 836.76,219.76 837.28,225.56 837.79,219.08 838.31,225.75 838.83,234.27 839.35,232.64 839.86,224.77 840.38,222.98 840.90,228.31 841.41,223.41 841.93,236.82 842.45,249.19 842.96,241.12 843.48,226.57 844.00,211.62 844.52,210.22 845.03,205.69 845.55,207.56 846.07,210.53 846.58,207.63 847.10,205.80 847.62,201.14 848.14,205.86 848.65,203.67 849.17,207.79 849.69,228.06 850.20,232.56 850.72,247.29 851.24,244.24 851.76,235.88 852.27,220.63 852.79,225.49 853.31,228.05 853.82,230.74 854.34,242.60 854.86,249.90 855.37,254.08 855.89,254.14 856.41,240.48 856.93,234.16 857.44,225.63 857.96,220.91 858.48,222.23 858.99,216.80 859.51,215.43 860.03,216.64 860.55,218.67 861.06,222.39 861.58,214.12 862.10,216.37 862.61,213.36 863.13,221.33 863.65,225.50 864.16,237.57 864.68,237.74 865.20,231.06 865.72,226.71 866.23,226.25 866.75,235.31 867.27,245.44 867.78,239.86 868.30,228.45 868.82,229.47 869.34,224.52 869.85,225.51 870.37,224.49 870.89,215.95 871.40,216.97 871.92,216.54 872.44,215.78 872.96,214.67 873.47,204.55 873.99,200.59 874.51,203.09 875.02,206.19 875.54,211.01 876.06,223.16 876.57,237.07 877.09,236.02 877.61,233.99 878.13,228.05 878.64,229.86 879.16,234.61 879.68,237.52 880.19,246.70 880.71,232.21 881.23,214.87 881.75,217.30 882.26,208.37 882.78,209.35 883.30,209.45 883.81,218.69 884.33,228.82 884.85,217.97 885.37,213.23 885.88,213.31 886.40,219.66 886.92,222.46 887.43,228.45 887.95,247.36 888.47,224.46 888.98,220.40 889.50,219.05 890.02,221.65 890.54,223.26 891.05,237.51 891.57,245.70 892.09,252.90 892.60,252.24 893.12,241.99 893.64,221.47 894.16,214.91 894.67,208.72 895.19,208.42 895.71,208.22 896.22,205.28 896.74,202.31 897.26,202.57 897.78,202.67 898.29,202.21 898.81,204.56 899.33,215.94 899.84,220.69 900.36,217.82 900.88,223.78 901.39,229.18 901.91,230.15 902.43,222.95 902.95,233.83 903.46,233.69 903.98,240.36 904.50,237.21 905.01,221.77 905.53,214.00 906.05,208.50 906.57,202.18 907.08,195.59 907.60,198.43 908.12,202.18 908.63,199.00 909.15,197.88 909.67,208.47 910.18,207.48 910.70,213.23 911.22,225.83 911.74,224.95 912.25,233.20 912.77,245.27 913.29,247.79 913.80,236.15 914.32,227.75 914.84,224.92 915.36,228.41 915.87,228.11 916.39,231.33 916.91,232.33 917.42,234.68 917.94,227.12 918.46,212.65 918.98,213.88 919.49,213.68 920.01,212.88 920.53,213.86 921.04,207.70 921.56,207.29 922.08,211.07 922.59,210.43 923.11,208.95 923.63,209.41 924.15,216.41 924.66,225.93 925.18,243.88 925.70,248.02 926.21,233.75 926.73,226.88 927.25,218.49 927.77,195.03 928.28,185.62 928.80,205.31 929.32,222.19 929.83,232.79 930.35,236.31 930.87,239.87 931.39,242.91 931.90,241.31 932.42,230.59 932.94,233.83 933.45,230.17 933.97,223.07 934.49,225.95 935.00,219.84 935.52,223.03 936.04,232.03 936.56,244.32 937.07,250.07 937.59,256.31 938.11,253.11 938.62,246.31 939.14,241.66 939.66,230.30 940.18,229.10 940.69,231.08 941.21,233.44 941.73,247.58 942.24,255.21 942.76,256.52 943.28,253.98 943.80,248.75 944.31,248.16 944.83,246.93 945.35,240.29 945.86,232.90 946.38,229.85 946.90,231.49 947.41,231.08 947.93,227.49 948.45,226.59 948.97,225.17 949.48,232.37 950.00,230.82" fill="none" stroke="#c43b4d" stroke-width="2.0"/>
<line x1="690" x2="712" y1="92" y2="92" stroke="#222222" stroke-width="3"/>
<text x="718" y="96" font-size="12" fill="#333333">Actual</text>
<line x1="782" x2="804" y1="92" y2="92" stroke="#5b3f8c" stroke-width="3"/>
<text x="810" y="96" font-size="12" fill="#333333">FEDFormer</text>
<line x1="874" x2="896" y1="92" y2="92" stroke="#c43b4d" stroke-width="3"/>
<text x="902" y="96" font-size="12" fill="#333333">Informer</text>
<text x="950" y="394" text-anchor="end" font-size="11" fill="#777777">held-out step</text>
</svg>
