<svg xmlns="http://www.w3.org/2000/svg" width="1000" height="620" viewBox="0 0 1000 620">
<rect width="100%" height="100%" fill="white"/>
<text x="500.0" y="28" text-anchor="middle" font-family="Arial, sans-serif" font-size="18" font-weight="bold">Corrected Julia replication of manuscript window sweep</text>
<line x1="100.0" y1="60" x2="100.0" y2="530" stroke="#eeeeee"/>
<line x1="100" y1="530.0" x2="750" y2="530.0" stroke="#eeeeee"/>
<text x="100.0" y="550" text-anchor="middle" font-family="Arial, sans-serif" font-size="11">-0.44</text>
<text x="92" y="534.0" text-anchor="end" font-family="Arial, sans-serif" font-size="11">0.1754</text>
<line x1="230.0" y1="60" x2="230.0" y2="530" stroke="#eeeeee"/>
<line x1="100" y1="436.0" x2="750" y2="436.0" stroke="#eeeeee"/>
<text x="230.0" y="550" text-anchor="middle" font-family="Arial, sans-serif" font-size="11">4.936</text>
<text x="92" y="440.0" text-anchor="end" font-family="Arial, sans-serif" font-size="11">0.3538</text>
<line x1="360.0" y1="60" x2="360.0" y2="530" stroke="#eeeeee"/>
<line x1="100" y1="342.0" x2="750" y2="342.0" stroke="#eeeeee"/>
<text x="360.0" y="550" text-anchor="middle" font-family="Arial, sans-serif" font-size="11">10.31</text>
<text x="92" y="346.0" text-anchor="end" font-family="Arial, sans-serif" font-size="11">0.5322</text>
<line x1="490.0" y1="60" x2="490.0" y2="530" stroke="#eeeeee"/>
<line x1="100" y1="248.0" x2="750" y2="248.0" stroke="#eeeeee"/>
<text x="490.0" y="550" text-anchor="middle" font-family="Arial, sans-serif" font-size="11">15.69</text>
<text x="92" y="252.0" text-anchor="end" font-family="Arial, sans-serif" font-size="11">0.7106</text>
<line x1="620.0" y1="60" x2="620.0" y2="530" stroke="#eeeeee"/>
<line x1="100" y1="154.0" x2="750" y2="154.0" stroke="#eeeeee"/>
<text x="620.0" y="550" text-anchor="middle" font-family="Arial, sans-serif" font-size="11">21.06</text>
<text x="92" y="158.0" text-anchor="end" font-family="Arial, sans-serif" font-size="11">0.889</text>
<line x1="750.0" y1="60" x2="750.0" y2="530" stroke="#eeeeee"/>
<line x1="100" y1="60.0" x2="750" y2="60.0" stroke="#eeeeee"/>
<text x="750.0" y="550" text-anchor="middle" font-family="Arial, sans-serif" font-size="11">26.44</text>
<text x="92" y="64.0" text-anchor="end" font-family="Arial, sans-serif" font-size="11">1.067</text>
<rect x="100" y="60" width="650" height="470" fill="none" stroke="black"/>
<polyline points="134.82142857142856,497.1620894513376 159.00297619047618,494.43085986565393 183.1845238095238,492.1562460448285 207.3660714285714,488.60867566831604 231.547619047619,485.9869046683462 304.0922619047619,479.10861518358513 352.4553571428571,474.8177450406676 473.3630952380952,461.8394813328735 594.2708333333333,451.3784573321311 715.1785714285713,442.36111546983636" fill="none" stroke="#0072B2" stroke-width="2.2"/>
<circle cx="134.82142857142856" cy="497.1620894513376" r="2.7" fill="#0072B2"/>
<circle cx="159.00297619047618" cy="494.43085986565393" r="2.7" fill="#0072B2"/>
<circle cx="183.1845238095238" cy="492.1562460448285" r="2.7" fill="#0072B2"/>
<circle cx="207.3660714285714" cy="488.60867566831604" r="2.7" fill="#0072B2"/>
<circle cx="231.547619047619" cy="485.9869046683462" r="2.7" fill="#0072B2"/>
<circle cx="304.0922619047619" cy="479.10861518358513" r="2.7" fill="#0072B2"/>
<circle cx="352.4553571428571" cy="474.8177450406676" r="2.7" fill="#0072B2"/>
<circle cx="473.3630952380952" cy="461.8394813328735" r="2.7" fill="#0072B2"/>
<circle cx="594.2708333333333" cy="451.3784573321311" r="2.7" fill="#0072B2"/>
<circle cx="715.1785714285713" cy="442.36111546983636" r="2.7" fill="#0072B2"/>
<line x1="770" y1="82" x2="800" y2="82" stroke="#0072B2" stroke-width="3"/>
<text x="808" y="86" font-family="Arial, sans-serif" font-size="12">adaptive_ridge</text>
<polyline points="134.82142857142856,426.619936495395 159.00297619047618,426.619936495395 183.1845238095238,426.619936495395 207.3660714285714,426.619936495395 231.547619047619,426.619936495395 304.0922619047619,426.619936495395 352.4553571428571,426.619936495395 473.3630952380952,426.619936495395 594.2708333333333,426.619936495395 715.1785714285713,426.619936495395" fill="none" stroke="#D55E00" stroke-width="2.2"/>
<circle cx="134.82142857142856" cy="426.619936495395" r="2.7" fill="#D55E00"/>
<circle cx="159.00297619047618" cy="426.619936495395" r="2.7" fill="#D55E00"/>
<circle cx="183.1845238095238" cy="426.619936495395" r="2.7" fill="#D55E00"/>
<circle cx="207.3660714285714" cy="426.619936495395" r="2.7" fill="#D55E00"/>
<circle cx="231.547619047619" cy="426.619936495395" r="2.7" fill="#D55E00"/>
<circle cx="304.0922619047619" cy="426.619936495395" r="2.7" fill="#D55E00"/>
<circle cx="352.4553571428571" cy="426.619936495395" r="2.7" fill="#D55E00"/>
<circle cx="473.3630952380952" cy="426.619936495395" r="2.7" fill="#D55E00"/>
<circle cx="594.2708333333333" cy="426.619936495395" r="2.7" fill="#D55E00"/>
<circle cx="715.1785714285713" cy="426.619936495395" r="2.7" fill="#D55E00"/>
<line x1="770" y1="104" x2="800" y2="104" stroke="#D55E00" stroke-width="3"/>
<text x="808" y="108" font-family="Arial, sans-serif" font-size="12">ensemble_mean</text>
<polyline points="134.82142857142856,85.17857142857144 159.00297619047618,85.17857142857144 183.1845238095238,85.17857142857144 207.3660714285714,85.17857142857144 231.547619047619,85.17857142857144 304.0922619047619,85.17857142857144 352.4553571428571,85.17857142857144 473.3630952380952,85.17857142857144 594.2708333333333,85.17857142857144 715.1785714285713,85.17857142857144" fill="none" stroke="#009E73" stroke-width="2.2"/>
<circle cx="134.82142857142856" cy="85.17857142857144" r="2.7" fill="#009E73"/>
<circle cx="159.00297619047618" cy="85.17857142857144" r="2.7" fill="#009E73"/>
<circle cx="183.1845238095238" cy="85.17857142857144" r="2.7" fill="#009E73"/>
<circle cx="207.3660714285714" cy="85.17857142857144" r="2.7" fill="#009E73"/>
<circle cx="231.547619047619" cy="85.17857142857144" r="2.7" fill="#009E73"/>
<circle cx="304.0922619047619" cy="85.17857142857144" r="2.7" fill="#009E73"/>
<circle cx="352.4553571428571" cy="85.17857142857144" r="2.7" fill="#009E73"/>
<circle cx="473.3630952380952" cy="85.17857142857144" r="2.7" fill="#009E73"/>
<circle cx="594.2708333333333" cy="85.17857142857144" r="2.7" fill="#009E73"/>
<circle cx="715.1785714285713" cy="85.17857142857144" r="2.7" fill="#009E73"/>
<line x1="770" y1="126" x2="800" y2="126" stroke="#009E73" stroke-width="3"/>
<text x="808" y="130" font-family="Arial, sans-serif" font-size="12">exp3</text>
<polyline points="134.82142857142856,459.47638956470234 159.00297619047618,459.47638956470234 183.1845238095238,459.47638956470234 207.3660714285714,459.47638956470234 231.547619047619,459.47638956470234 304.0922619047619,459.47638956470234 352.4553571428571,459.47638956470234 473.3630952380952,459.47638956470234 594.2708333333333,459.47638956470234 715.1785714285713,459.47638956470234" fill="none" stroke="#CC79A7" stroke-width="2.2"/>
<circle cx="134.82142857142856" cy="459.47638956470234" r="2.7" fill="#CC79A7"/>
<circle cx="159.00297619047618" cy="459.47638956470234" r="2.7" fill="#CC79A7"/>
<circle cx="183.1845238095238" cy="459.47638956470234" r="2.7" fill="#CC79A7"/>
<circle cx="207.3660714285714" cy="459.47638956470234" r="2.7" fill="#CC79A7"/>
<circle cx="231.547619047619" cy="459.47638956470234" r="2.7" fill="#CC79A7"/>
<circle cx="304.0922619047619" cy="459.47638956470234" r="2.7" fill="#CC79A7"/>
<circle cx="352.4553571428571" cy="459.47638956470234" r="2.7" fill="#CC79A7"/>
<circle cx="473.3630952380952" cy="459.47638956470234" r="2.7" fill="#CC79A7"/>
<circle cx="594.2708333333333" cy="459.47638956470234" r="2.7" fill="#CC79A7"/>
<circle cx="715.1785714285713" cy="459.47638956470234" r="2.7" fill="#CC79A7"/>
<line x1="770" y1="148" x2="800" y2="148" stroke="#CC79A7" stroke-width="3"/>
<text x="808" y="152" font-family="Arial, sans-serif" font-size="12">fixed_share</text>
<polyline points="134.82142857142856,446.7378408515979 159.00297619047618,446.7378408515979 183.1845238095238,446.7378408515979 207.3660714285714,446.7378408515979 231.547619047619,446.7378408515979 304.0922619047619,446.7378408515979 352.4553571428571,446.7378408515979 473.3630952380952,446.7378408515979 594.2708333333333,446.7378408515979 715.1785714285713,446.7378408515979" fill="none" stroke="#E69F00" stroke-width="2.2"/>
<circle cx="134.82142857142856" cy="446.7378408515979" r="2.7" fill="#E69F00"/>
<circle cx="159.00297619047618" cy="446.7378408515979" r="2.7" fill="#E69F00"/>
<circle cx="183.1845238095238" cy="446.7378408515979" r="2.7" fill="#E69F00"/>
<circle cx="207.3660714285714" cy="446.7378408515979" r="2.7" fill="#E69F00"/>
<circle cx="231.547619047619" cy="446.7378408515979" r="2.7" fill="#E69F00"/>
<circle cx="304.0922619047619" cy="446.7378408515979" r="2.7" fill="#E69F00"/>
<circle cx="352.4553571428571" cy="446.7378408515979" r="2.7" fill="#E69F00"/>
<circle cx="473.3630952380952" cy="446.7378408515979" r="2.7" fill="#E69F00"/>
<circle cx="594.2708333333333" cy="446.7378408515979" r="2.7" fill="#E69F00"/>
<circle cx="715.1785714285713" cy="446.7378408515979" r="2.7" fill="#E69F00"/>
<line x1="770" y1="170" x2="800" y2="170" stroke="#E69F00" stroke-width="3"/>
<text x="808" y="174" font-family="Arial, sans-serif" font-size="12">hedge</text>
<polyline points="134.82142857142856,313.3099987567276 159.00297619047618,313.3099987567276 183.1845238095238,313.3099987567276 207.3660714285714,313.3099987567276 231.547619047619,313.3099987567276 304.0922619047619,313.3099987567276 352.4553571428571,313.3099987567276 473.3630952380952,313.3099987567276 594.2708333333333,313.3099987567276 715.1785714285713,313.3099987567276" fill="none" stroke="#56B4E9" stroke-width="2.2"/>
<circle cx="134.82142857142856" cy="313.3099987567276" r="2.7" fill="#56B4E9"/>
<circle cx="159.00297619047618" cy="313.3099987567276" r="2.7" fill="#56B4E9"/>
<circle cx="183.1845238095238" cy="313.3099987567276" r="2.7" fill="#56B4E9"/>
<circle cx="207.3660714285714" cy="313.3099987567276" r="2.7" fill="#56B4E9"/>
<circle cx="231.547619047619" cy="313.3099987567276" r="2.7" fill="#56B4E9"/>
<circle cx="304.0922619047619" cy="313.3099987567276" r="2.7" fill="#56B4E9"/>
<circle cx="352.4553571428571" cy="313.3099987567276" r="2.7" fill="#56B4E9"/>
<circle cx="473.3630952380952" cy="313.3099987567276" r="2.7" fill="#56B4E9"/>
<circle cx="594.2708333333333" cy="313.3099987567276" r="2.7" fill="#56B4E9"/>
<circle cx="715.1785714285713" cy="313.3099987567276" r="2.7" fill="#56B4E9"/>
<line x1="770" y1="192" x2="800" y2="192" stroke="#56B4E9" stroke-width="3"/>
<text x="808" y="196" font-family="Arial, sans-serif" font-size="12">oracle_best_member</text>
<polyline points="134.82142857142856,498.61772570566893 159.00297619047618,498.61772570566893 183.1845238095238,498.61772570566893 207.3660714285714,498.61772570566893 231.547619047619,498.61772570566893 304.0922619047619,498.61772570566893 352.4553571428571,498.61772570566893 473.3630952380952,498.61772570566893 594.2708333333333,498.61772570566893 715.1785714285713,498.61772570566893" fill="none" stroke="#000000" stroke-width="2.2"/>
<circle cx="134.82142857142856" cy="498.61772570566893" r="2.7" fill="#000000"/>
<circle cx="159.00297619047618" cy="498.61772570566893" r="2.7" fill="#000000"/>
<circle cx="183.1845238095238" cy="498.61772570566893" r="2.7" fill="#000000"/>
<circle cx="207.3660714285714" cy="498.61772570566893" r="2.7" fill="#000000"/>
<circle cx="231.547619047619" cy="498.61772570566893" r="2.7" fill="#000000"/>
<circle cx="304.0922619047619" cy="498.61772570566893" r="2.7" fill="#000000"/>
<circle cx="352.4553571428571" cy="498.61772570566893" r="2.7" fill="#000000"/>
<circle cx="473.3630952380952" cy="498.61772570566893" r="2.7" fill="#000000"/>
<circle cx="594.2708333333333" cy="498.61772570566893" r="2.7" fill="#000000"/>
<circle cx="715.1785714285713" cy="498.61772570566893" r="2.7" fill="#000000"/>
<line x1="770" y1="214" x2="800" y2="214" stroke="#000000" stroke-width="3"/>
<text x="808" y="218" font-family="Arial, sans-serif" font-size="12">passive_aggressive</text>
<polyline points="134.82142857142856,504.82142857142856 159.00297619047618,504.82142857142856 183.1845238095238,504.82142857142856 207.3660714285714,504.82142857142856 231.547619047619,504.82142857142856 304.0922619047619,504.82142857142856 352.4553571428571,504.82142857142856 473.3630952380952,504.82142857142856 594.2708333333333,504.82142857142856 715.1785714285713,504.82142857142856" fill="none" stroke="#999999" stroke-width="2.2"/>
<circle cx="134.82142857142856" cy="504.82142857142856" r="2.7" fill="#999999"/>
<circle cx="159.00297619047618" cy="504.82142857142856" r="2.7" fill="#999999"/>
<circle cx="183.1845238095238" cy="504.82142857142856" r="2.7" fill="#999999"/>
<circle cx="207.3660714285714" cy="504.82142857142856" r="2.7" fill="#999999"/>
<circle cx="231.547619047619" cy="504.82142857142856" r="2.7" fill="#999999"/>
<circle cx="304.0922619047619" cy="504.82142857142856" r="2.7" fill="#999999"/>
<circle cx="352.4553571428571" cy="504.82142857142856" r="2.7" fill="#999999"/>
<circle cx="473.3630952380952" cy="504.82142857142856" r="2.7" fill="#999999"/>
<circle cx="594.2708333333333" cy="504.82142857142856" r="2.7" fill="#999999"/>
<circle cx="715.1785714285713" cy="504.82142857142856" r="2.7" fill="#999999"/>
<line x1="770" y1="236" x2="800" y2="236" stroke="#999999" stroke-width="3"/>
<text x="808" y="240" font-family="Arial, sans-serif" font-size="12">rls</text>
<polyline points="134.82142857142856,492.09676132789866 159.00297619047618,492.09676132789866 183.1845238095238,492.09676132789866 207.3660714285714,492.09676132789866 231.547619047619,492.09676132789866 304.0922619047619,492.09676132789866 352.4553571428571,492.09676132789866 473.3630952380952,492.09676132789866 594.2708333333333,492.09676132789866 715.1785714285713,492.09676132789866" fill="none" stroke="#F0E442" stroke-width="2.2"/>
<circle cx="134.82142857142856" cy="492.09676132789866" r="2.7" fill="#F0E442"/>
<circle cx="159.00297619047618" cy="492.09676132789866" r="2.7" fill="#F0E442"/>
<circle cx="183.1845238095238" cy="492.09676132789866" r="2.7" fill="#F0E442"/>
<circle cx="207.3660714285714" cy="492.09676132789866" r="2.7" fill="#F0E442"/>
<circle cx="231.547619047619" cy="492.09676132789866" r="2.7" fill="#F0E442"/>
<circle cx="304.0922619047619" cy="492.09676132789866" r="2.7" fill="#F0E442"/>
<circle cx="352.4553571428571" cy="492.09676132789866" r="2.7" fill="#F0E442"/>
<circle cx="473.3630952380952" cy="492.09676132789866" r="2.7" fill="#F0E442"/>
<circle cx="594.2708333333333" cy="492.09676132789866" r="2.7" fill="#F0E442"/>
<circle cx="715.1785714285713" cy="492.09676132789866" r="2.7" fill="#F0E442"/>
<line x1="770" y1="258" x2="800" y2="258" stroke="#F0E442" stroke-width="3"/>
<text x="808" y="262" font-family="Arial, sans-serif" font-size="12">static_ridge</text>
<polyline points="134.82142857142856,286.90443194712134 159.00297619047618,286.90443194712134 183.1845238095238,286.90443194712134 207.3660714285714,286.90443194712134 231.547619047619,286.90443194712134 304.0922619047619,286.90443194712134 352.4553571428571,286.90443194712134 473.3630952380952,286.90443194712134 594.2708333333333,286.90443194712134 715.1785714285713,286.90443194712134" fill="none" stroke="#882255" stroke-width="2.2"/>
<circle cx="134.82142857142856" cy="286.90443194712134" r="2.7" fill="#882255"/>
<circle cx="159.00297619047618" cy="286.90443194712134" r="2.7" fill="#882255"/>
<circle cx="183.1845238095238" cy="286.90443194712134" r="2.7" fill="#882255"/>
<circle cx="207.3660714285714" cy="286.90443194712134" r="2.7" fill="#882255"/>
<circle cx="231.547619047619" cy="286.90443194712134" r="2.7" fill="#882255"/>
<circle cx="304.0922619047619" cy="286.90443194712134" r="2.7" fill="#882255"/>
<circle cx="352.4553571428571" cy="286.90443194712134" r="2.7" fill="#882255"/>
<circle cx="473.3630952380952" cy="286.90443194712134" r="2.7" fill="#882255"/>
<circle cx="594.2708333333333" cy="286.90443194712134" r="2.7" fill="#882255"/>
<circle cx="715.1785714285713" cy="286.90443194712134" r="2.7" fill="#882255"/>
<line x1="770" y1="280" x2="800" y2="280" stroke="#882255" stroke-width="3"/>
<text x="808" y="284" font-family="Arial, sans-serif" font-size="12">validation_best_member</text>
<text x="425.0" y="602" text-anchor="middle" font-family="Arial, sans-serif" font-size="14">fixed adaptive window tau</text>
<text transform="translate(25,295.0) rotate(-90)" text-anchor="middle" font-family="Arial, sans-serif" font-size="14">CVAR_05</text>
</svg>
