<svg xmlns="http://www.w3.org/2000/svg" width="716" height="740" viewBox="0 0 716 740">
<rect width="100%" height="100%" fill="#f7f7f7"/>
<text x="20" y="32" font-size="22" font-weight="700" fill="#222222">Smoke-run coefficient trajectories: synthetic</text>
<text x="20" y="54" font-size="12" fill="#666666">Each line is one coefficient/ensemble-member weight over the held-out evaluation steps.</text>
<rect x="20" y="76" width="330" height="210" fill="#ffffff" stroke="#d6d6d6"/>
<text x="32" y="97" font-size="13" font-weight="600" fill="#222222">Adaptive Ridge
error rule</text>
<line x1="64" x2="338" y1="252.0" y2="252.0" stroke="#e8e8e8"/>
<text x="57" y="255.0" text-anchor="end" font-size="9" fill="#666666">-0.069</text>
<line x1="64" x2="338" y1="204.66666666666669" y2="204.66666666666669" stroke="#e8e8e8"/>
<text x="57" y="207.66666666666669" text-anchor="end" font-size="9" fill="#666666">0.030</text>
<line x1="64" x2="338" y1="157.33333333333334" y2="157.33333333333334" stroke="#e8e8e8"/>
<text x="57" y="160.33333333333334" text-anchor="end" font-size="9" fill="#666666">0.129</text>
<line x1="64" x2="338" y1="110.0" y2="110.0" stroke="#e8e8e8"/>
<text x="57" y="113.0" text-anchor="end" font-size="9" fill="#666666">0.228</text>
<polyline points="64.00,204.99 338.00,144.74" fill="none" stroke="#2f6f9f" stroke-width="1.8"/>
<polyline points="64.00,183.70 338.00,242.21" fill="none" stroke="#d95f02" stroke-width="1.8"/>
<polyline points="64.00,144.31 338.00,162.20" fill="none" stroke="#4c9f70" stroke-width="1.8"/>
<polyline points="64.00,179.83 338.00,234.72" fill="none" stroke="#7570b3" stroke-width="1.8"/>
<polyline points="64.00,129.41 338.00,119.79" fill="none" stroke="#e7298a" stroke-width="1.8"/>
<text x="338" y="272" text-anchor="end" font-size="10" fill="#777777">test step</text>

<rect x="366" y="76" width="330" height="210" fill="#ffffff" stroke="#d6d6d6"/>
<text x="378" y="97" font-size="13" font-weight="600" fill="#222222">Adaptive Ridge std.
error rule</text>
<line x1="410" x2="684" y1="252.0" y2="252.0" stroke="#e8e8e8"/>
<text x="403" y="255.0" text-anchor="end" font-size="9" fill="#666666">-0.122</text>
<line x1="410" x2="684" y1="204.66666666666669" y2="204.66666666666669" stroke="#e8e8e8"/>
<text x="403" y="207.66666666666669" text-anchor="end" font-size="9" fill="#666666">0.026</text>
<line x1="410" x2="684" y1="157.33333333333334" y2="157.33333333333334" stroke="#e8e8e8"/>
<text x="403" y="160.33333333333334" text-anchor="end" font-size="9" fill="#666666">0.175</text>
<line x1="410" x2="684" y1="110.0" y2="110.0" stroke="#e8e8e8"/>
<text x="403" y="113.0" text-anchor="end" font-size="9" fill="#666666">0.323</text>
<polyline points="410.00,242.21 684.00,227.83" fill="none" stroke="#2f6f9f" stroke-width="1.8"/>
<polyline points="410.00,177.01 684.00,193.16" fill="none" stroke="#d95f02" stroke-width="1.8"/>
<polyline points="410.00,119.79 684.00,144.89" fill="none" stroke="#4c9f70" stroke-width="1.8"/>
<polyline points="410.00,187.62 684.00,200.80" fill="none" stroke="#7570b3" stroke-width="1.8"/>
<polyline points="410.00,151.21 684.00,165.46" fill="none" stroke="#e7298a" stroke-width="1.8"/>
<text x="684" y="272" text-anchor="end" font-size="10" fill="#777777">test step</text>

<rect x="20" y="302" width="330" height="210" fill="#ffffff" stroke="#d6d6d6"/>
<text x="32" y="323" font-size="13" font-weight="600" fill="#222222">Adaptive Ridge
exact</text>
<line x1="64" x2="338" y1="478.0" y2="478.0" stroke="#e8e8e8"/>
<text x="57" y="481.0" text-anchor="end" font-size="9" fill="#666666">-0.327</text>
<line x1="64" x2="338" y1="430.6666666666667" y2="430.6666666666667" stroke="#e8e8e8"/>
<text x="57" y="433.6666666666667" text-anchor="end" font-size="9" fill="#666666">-0.022</text>
<line x1="64" x2="338" y1="383.33333333333337" y2="383.33333333333337" stroke="#e8e8e8"/>
<text x="57" y="386.33333333333337" text-anchor="end" font-size="9" fill="#666666">0.282</text>
<line x1="64" x2="338" y1="336.0" y2="336.0" stroke="#e8e8e8"/>
<text x="57" y="339.0" text-anchor="end" font-size="9" fill="#666666">0.587</text>
<polyline points="64.00,389.76 338.00,345.79" fill="none" stroke="#2f6f9f" stroke-width="1.8"/>
<polyline points="64.00,440.73 338.00,468.21" fill="none" stroke="#d95f02" stroke-width="1.8"/>
<polyline points="64.00,405.20 338.00,397.03" fill="none" stroke="#4c9f70" stroke-width="1.8"/>
<polyline points="64.00,436.61 338.00,460.10" fill="none" stroke="#7570b3" stroke-width="1.8"/>
<polyline points="64.00,383.22 338.00,351.49" fill="none" stroke="#e7298a" stroke-width="1.8"/>
<text x="338" y="498" text-anchor="end" font-size="10" fill="#777777">test step</text>

<rect x="366" y="302" width="330" height="210" fill="#ffffff" stroke="#d6d6d6"/>
<text x="378" y="323" font-size="13" font-weight="600" fill="#222222">Adaptive Ridge
standard</text>
<line x1="410" x2="684" y1="478.0" y2="478.0" stroke="#e8e8e8"/>
<text x="403" y="481.0" text-anchor="end" font-size="9" fill="#666666">-0.170</text>
<line x1="410" x2="684" y1="430.6666666666667" y2="430.6666666666667" stroke="#e8e8e8"/>
<text x="403" y="433.6666666666667" text-anchor="end" font-size="9" fill="#666666">0.021</text>
<line x1="410" x2="684" y1="383.3333333333333" y2="383.3333333333333" stroke="#e8e8e8"/>
<text x="403" y="386.3333333333333" text-anchor="end" font-size="9" fill="#666666">0.212</text>
<line x1="410" x2="684" y1="336.0" y2="336.0" stroke="#e8e8e8"/>
<text x="403" y="339.0" text-anchor="end" font-size="9" fill="#666666">0.404</text>
<polyline points="410.00,400.17 684.00,347.05" fill="none" stroke="#2f6f9f" stroke-width="1.8"/>
<polyline points="410.00,440.52 684.00,468.21" fill="none" stroke="#d95f02" stroke-width="1.8"/>
<polyline points="410.00,398.13 684.00,403.12" fill="none" stroke="#4c9f70" stroke-width="1.8"/>
<polyline points="410.00,436.50 684.00,455.97" fill="none" stroke="#7570b3" stroke-width="1.8"/>
<polyline points="410.00,376.58 684.00,345.79" fill="none" stroke="#e7298a" stroke-width="1.8"/>
<text x="684" y="498" text-anchor="end" font-size="10" fill="#777777">test step</text>

<rect x="20" y="528" width="330" height="210" fill="#ffffff" stroke="#d6d6d6"/>
<text x="32" y="549" font-size="13" font-weight="600" fill="#222222">Passive-
Aggressive</text>
<line x1="64" x2="338" y1="704.0" y2="704.0" stroke="#e8e8e8"/>
<text x="57" y="707.0" text-anchor="end" font-size="9" fill="#666666">-0.017</text>
<line x1="64" x2="338" y1="656.6666666666666" y2="656.6666666666666" stroke="#e8e8e8"/>
<text x="57" y="659.6666666666666" text-anchor="end" font-size="9" fill="#666666">0.064</text>
<line x1="64" x2="338" y1="609.3333333333334" y2="609.3333333333334" stroke="#e8e8e8"/>
<text x="57" y="612.3333333333334" text-anchor="end" font-size="9" fill="#666666">0.145</text>
<line x1="64" x2="338" y1="562.0" y2="562.0" stroke="#e8e8e8"/>
<text x="57" y="565.0" text-anchor="end" font-size="9" fill="#666666">0.226</text>
<polyline points="64.00,573.96 338.00,586.66" fill="none" stroke="#2f6f9f" stroke-width="1.8"/>
<polyline points="64.00,577.23 338.00,599.15" fill="none" stroke="#d95f02" stroke-width="1.8"/>
<polyline points="64.00,573.79 338.00,600.95" fill="none" stroke="#4c9f70" stroke-width="1.8"/>
<polyline points="64.00,576.83 338.00,594.66" fill="none" stroke="#7570b3" stroke-width="1.8"/>
<polyline points="64.00,571.79 338.00,601.96" fill="none" stroke="#e7298a" stroke-width="1.8"/>
<text x="338" y="724" text-anchor="end" font-size="10" fill="#777777">test step</text>

<rect x="366" y="528" width="330" height="210" fill="#ffffff" stroke="#d6d6d6"/>
<text x="378" y="549" font-size="13" font-weight="600" fill="#222222">Exp3
full</text>
<line x1="410" x2="684" y1="704.0" y2="704.0" stroke="#e8e8e8"/>
<text x="403" y="707.0" text-anchor="end" font-size="9" fill="#666666">-0.048</text>
<line x1="410" x2="684" y1="656.6666666666666" y2="656.6666666666666" stroke="#e8e8e8"/>
<text x="403" y="659.6666666666666" text-anchor="end" font-size="9" fill="#666666">0.183</text>
<line x1="410" x2="684" y1="609.3333333333334" y2="609.3333333333334" stroke="#e8e8e8"/>
<text x="403" y="612.3333333333334" text-anchor="end" font-size="9" fill="#666666">0.413</text>
<line x1="410" x2="684" y1="562.0" y2="562.0" stroke="#e8e8e8"/>
<text x="403" y="565.0" text-anchor="end" font-size="9" fill="#666666">0.644</text>
<polyline points="410.00,691.71 684.00,637.27" fill="none" stroke="#2f6f9f" stroke-width="1.8"/>
<polyline points="410.00,571.79 684.00,635.31" fill="none" stroke="#d95f02" stroke-width="1.8"/>
<polyline points="410.00,614.56 684.00,605.30" fill="none" stroke="#4c9f70" stroke-width="1.8"/>
<polyline points="410.00,693.44 684.00,693.61" fill="none" stroke="#7570b3" stroke-width="1.8"/>
<text x="684" y="724" text-anchor="end" font-size="10" fill="#777777">test step</text>

</svg>
